<svg id="Capa_1" data-name="Capa 1" xmlns="http://www.w3.org/2000/svg" viewBox="0 0 420.21 96.97"><defs><style>.cls-1{fill:#1e1d1d;}.cls-2{fill:#fff;fill-rule:evenodd;}</style></defs><title>Emirates Premier Partner blacktext Horizontal</title><path class="cls-1" d="M222,62.64h-2.73c-2.55,0-2.55,0-3,2L214,74.75c-0.44,2-.44,2,2.11,2l1.26-5.54,1.49-6.59h2.84c3,0,3.19,1.3,2.93,2.4-0.56,2.49-.56,2.49-4,2.48h-1.8a1,1,0,0,0-1,1.56l2.89,4.18c1.19,1.68,1.3,1.51,4.75,1.52l-4.78-5.43c2.84,0,5.66-.83,6.45-4.3,0.41-1.82.41-4.39-5.18-4.4m-17.87,0h-2.81c-2.55,0-2.55,0-3,2l-2.28,10.13c-0.47,2-.47,2,2.09,2l0.47-2,0.64-2.9h3c5.72,0,6.62-2.69,7.06-4.63s0.53-4.58-5.16-4.59m2.54,4.59c-0.61,2.71-.61,2.71-4,2.71h-3l1.19-5.3h2.9c3.13,0,3.16,1.42,2.9,2.59m69.09-4.45-2.75,12.21c-0.44,1.92-.44,1.92,2.12,1.93l2.75-12.28c0.44-1.85.44-1.85-2.12-1.86M217,51.2l-3.61-14.43h-2.53c-2.49,0-2.72.08-4.09,1.76L196.41,51.11c4.76,0,4.65.1,6.05-1.64l0.8-1,8.81,0,0.23,1c0.26,1.07.33,1.54,2.15,1.63,0.52,0,1,0,2.53,0m-11.89-5.1,5.17-6.61,1.33,6.63Zm58.69,18.4-5.41,8c-0.28.42-1.1,1.82-1.1,1.82s-0.2-1.41-.29-1.82l-1.76-8c-0.4-1.83-.4-1.8-2.72-1.8h-1.25L248.5,74.9c-0.44,1.92-.44,1.92,2.08,1.93l2.52-11.2,2.48,11.21h1.27c1.31,0,1.28,0,2.35-1.59l6.43-9.59-2.07,9.27c-0.44,1.92-.44,1.92,2.11,1.93l3.19-14.15H267c-2.06,0-2,0-3.22,1.79m-20.9-1.82h-5.72c-2.52,0-2.52,0-3,2l-2.25,10.1c-0.47,2-.47,2,2.06,2l7.8,0c0.47-2,.47-2-1.8-2h-5.54l0.94-4.22h7.08c0.44-2,.44-2-1.62-2h-5l0.88-3.92h7.81c0.46-2,.46-2-1.62-2m-9.19-24.33a13.07,13.07,0,0,0,.46-1.47l-12.4,0c-2.75,0-3,.19-3.68,2.6l5.56,0L220.86,49c-0.61,2.15-.35,2.24,3.55,2.26l3.41-11.76h2.46a6.07,6.07,0,0,0,2.76-.32,1.67,1.67,0,0,0,.65-0.8M426.71,63H421c-2.52,0-2.52,0-3,2l-2.25,10.1c-0.47,2-.47,2,2.05,2h7.8c0.47-2,.47-2-1.79-2h-5.54l0.94-4.22h7.08c0.44-2,.44-2-1.62-2h-5L420.53,65l7.8,0c0.47-2,.47-2-1.62-2m21-28.34-1.62,3h0l-0.31-3h-1.28l-0.9,4.19h0.88l0.64-3.33h0l0.4,3.33h0.71L448,35.56h0l-0.76,3.33h0.86L449,34.7h-1.29ZM441,38.87h0.92l0.73-3.42h1.25l0.16-.78h-3.49l-0.17.78h1.31ZM294.3,51.38c7.86,0,10.7-3.47,11.82-7.28s0.29-7.39-7.57-7.41S287.84,40.15,286.73,44s-0.25,7.35,7.57,7.38M291.08,44c1.34-4.68,1.3-4.71,6.7-4.69,4.46,0,4.82,1.95,4,4.76-1.38,4.65-1.34,4.68-6.74,4.66-4.39,0-4.8-2-4-4.74m-58.32,6.93c0.64,0.42,2.8.33,3.59,0.33L237,49l0.73-2.47h3.4c7.78,0,9.12-2.81,9.7-4.8s0.58-4.77-7.13-4.8l-3.67,0c-0.87,0-1.52,0-2,0-2.08.14-2.15,1.09-2.5,2.24l-2.83,9.78c-0.34,1.15-.39,1.69,0,2m7-11.45h3.29c3.78,0,3.74,1.23,3.43,2.21-0.65,2.33-.69,2.3-4.66,2.29l-3.36,0ZM440.37,63.06h-2.73c-2.55,0-2.55,0-3,2l-2.3,10.13c-0.44,2-.44,2,2.11,2l1.26-5.55L437.21,65h2.84c3,0,3.19,1.3,2.93,2.41-0.55,2.49-.55,2.49-4,2.48h-1.8a1,1,0,0,0-1,1.56l2.89,4.18c1.19,1.68,1.3,1.51,4.75,1.52l-4.78-5.44c2.84,0,5.66-.82,6.45-4.3,0.41-1.82.41-4.39-5.19-4.4m-2.75-11.29L432,46.43c3,0,6.17-1.16,7.12-4.43,0.54-1.94.39-4.61-7.2-4.64h-3.56c-0.87,0-1.51,0-2,0-2.08.12-2.17,1.08-2.51,2.24L421,49.43c-0.35,1.12-.39,1.67,0,2,0.64,0.43,2.8.33,3.58,0.33l1.7-5.72,1.75-6.06h3.21c3.71,0,3.74,1.15,3.51,2-0.11.34-.38,1.57-0.92,1.82s-1.62.22-3.7,0.21H429c-1.83,0-2.35,1.4-1.75,2.1l3.62,4c1.16,1.3,1.65,1.58,3.88,1.61l2.91,0m-130.43,11h-2.72c-2.55,0-2.55,0-3,2l-2.31,10.13c-0.44,2-.44,2,2.11,2l1.26-5.55L304,64.79h2.85c3,0,3.18,1.31,2.93,2.41-0.56,2.49-.56,2.49-4,2.48H304a1,1,0,0,0-1,1.56l2.9,4.18c1.18,1.68,1.3,1.51,4.75,1.52l-4.77-5.43c2.84,0,5.66-.83,6.45-4.3,0.41-1.82.41-4.39-5.19-4.4M380.78,65H385l-2.28,10.16c-0.44,2-.44,2,2.05,2L387.53,65h2.23c2,0,2,0,2.5-2l-9.17,0c-1.85,0-1.85,0-2.32,2m-29-27.91-4.09,0c-3.44,0-3.78,0-4.42,2.25l-2.19,7.49-0.68,2.37c-0.16.57-.54,1.53,0,1.94,0.38,0.26,1.29.33,3.11,0.33h3.77c6.15,0,10.4-2.76,11.74-7.25s-1.15-7.11-7.26-7.14m3.07,7.09c-1.38,4.74-1.38,4.74-7.42,4.72h-2.68l2.68-9.24,2.87,0c4,0,5.56,1,4.56,4.5m-2.75,18.72c-1.74,0-1.77,0-2.76,1.6L341.55,77c2.82,0,2.79,0,3.66-1.47L346,74.26h7.28l0.2,1.27c0.26,1.48.17,1.48,2.84,1.49l-2.53-14.16h-1.68ZM347,72.49l4.77-8,1.23,8h-6Zm23.1-9.57h-2.73c-2.54,0-2.54,0-3,2L362.09,75c-0.44,2-.44,2,2.11,2l1.26-5.54,1.49-6.59h2.85c3,0,3.18,1.3,2.92,2.41-0.55,2.49-.55,2.49-4,2.48h-1.8a1,1,0,0,0-1,1.56l2.89,4.18c1.19,1.68,1.3,1.52,4.76,1.52l-4.77-5.44c2.84,0,5.66-.82,6.45-4.3,0.41-1.82.41-4.39-5.18-4.4M382,38.67a11.13,11.13,0,0,0,.47-1.49l-12.4,0c-2.76,0-2.94.18-3.68,2.6h5.56l-2.76,9.51c-0.62,2.16-.35,2.25,3.55,2.27l3.4-11.75h2.46a5.89,5.89,0,0,0,2.75-.33,1.5,1.5,0,0,0,.64-0.78m26.61,26-2.14,9.44L401.8,64.4C401.11,63,401.11,63,399.2,63H398L396,72l-0.71,3.15c-0.44,2-.44,2,2.11,2l2.52-11.19,4.65,9.64c0.78,1.57.75,1.57,2.52,1.57h1.25L411.5,63c-2.55,0-2.55,0-2.93,1.68m-115-1.89h-5.71c-2.53,0-2.53,0-3,2l-2.25,10.1c-0.47,2-.47,2,2.05,2l7.8,0c0.47-2,.47-2-1.79-2h-5.54L286,70.67h7.08c0.44-2,.44-2-1.62-2h-5l0.88-3.92h7.8c0.47-2,.47-2-1.62-2m41.76,0.08h-2.81c-2.55,0-2.55,0-3,2L327.2,75c-0.47,2-.47,2,2.09,2l0.47-2,0.64-2.9h3c5.72,0,6.62-2.69,7.06-4.63s0.53-4.58-5.15-4.59m2.54,4.59c-0.62,2.71-.62,2.71-4,2.71h-3l1.2-5.3h2.9c3.13,0,3.16,1.42,2.9,2.59m50.57-15.7c7.86,0,10.72-3.46,11.82-7.28s0.29-7.38-7.56-7.41-10.71,3.46-11.82,7.32-0.25,7.35,7.56,7.38m-3.21-7.37c1.34-4.68,1.3-4.7,6.7-4.69,4.46,0,4.84,2,4,4.76-1.38,4.65-1.34,4.69-6.74,4.66-4.39,0-4.79-2-4-4.73M282.35,38.84l-5.7,8.41-1.06-8.44a2,2,0,0,0-.86-1.79,14.37,14.37,0,0,0-4.09-.31l-7.4,10.47-0.85-8.42a1.86,1.86,0,0,0-.74-1.8c-0.75-.4-2.87-0.3-3.78-0.3l2,14.42h1.74c3,0,3.06-.14,4.46-2.08l5.86-8.32,1.36,10.44h2.23a5.13,5.13,0,0,0,2.34-.29,5.9,5.9,0,0,0,1.63-1.8l8.81-12.26c-4.57,0-4.54,0-6,2.06m36-1.92h-3.56c-0.87,0-1.51,0-2,0-2.07.12-2.15,1.08-2.48,2.23L307.54,49c-0.34,1.13-.38,1.68,0,2,0.65,0.43,2.8.33,3.59,0.33l1.69-5.72,1.76-6.07h3.21c3.71,0,3.74,1.14,3.52,2-0.12.34-.39,1.57-0.92,1.83s-1.62.21-3.7,0.2h-1.22c-1.8,0-2.35,1.39-1.73,2.1l3.61,4c1.17,1.29,1.65,1.58,3.88,1.61l2.91,0L318.48,46c3,0,6.15-1.16,7.11-4.44,0.54-1.93.39-4.6-7.2-4.63M418,50.54a7,7,0,0,0,.42-1.24l2.83-9.82c0.31-1.09.35-1.59-.08-1.87-0.59-.43-2.78-0.33-3.58-0.33L414.18,49l-4.38,0c-3.6,0-4.08-1.15-3.32-3.89l1.69-5.75c0.3-1,.31-1.51-0.1-1.76-0.61-.37-2.83-0.3-3.59-0.3l-2.3,7.92c-1.33,4.62.65,6.48,6.83,6.51l4.87,0c0.86,0,1.52,0,2,0A2.12,2.12,0,0,0,418,50.54m-80.5.84c0.16-.52.69-1.79,0.2-2.22-0.3-.27-1-0.36-2.53-0.37l-4.31,0,2.76-9.5c0.34-1.12.38-1.68,0-2C333,36.88,330.86,37,330,37l-3.52,12.12c-0.66,2.24-.12,2.24,2.93,2.25Zm-162.88,51.8h1.9l0.19-97h-1.9Z" transform="translate(-28.81 -6.2)"/><rect y="1.18" width="125.21" height="94.61"/><path class="cls-2" d="M97.43,24.89a6,6,0,0,0-1.26,3.61c0,0.44,0,11,0,11.33a4.23,4.23,0,0,1-.91,2.34c-0.28.28-2,1.87-2.18,2l1,0c0.32-.31,3.68-3.28,4-3.68a5.81,5.81,0,0,0,1.55-3.9c0-.49,0-10.45,0-10.89a4.2,4.2,0,0,1,1.15-3c0.4-.45,1.73-1.55,2-1.8l-1,0c-0.25.25-4,3.6-4.3,4" transform="translate(-28.81 -6.2)"/><path class="cls-2" d="M89.12,66.09l4.11,3.59H96a10.11,10.11,0,0,0,7-2.89,8.47,8.47,0,0,0,2.31-6.08V54.82a4.77,4.77,0,0,0-1.59-3.48L102.37,50v4.52L104,56.19c1.22,1.3,1.21,3.66-2.66,7.42A7.83,7.83,0,0,1,96,66.09H89.12Z" transform="translate(-28.81 -6.2)"/><path class="cls-2" d="M100.56,41.92a4.52,4.52,0,0,0-.9,2.72v2.23h2.26a3.45,3.45,0,0,0,2.29-1.22s0-2.21,0-2.21a6.08,6.08,0,0,0,1.21,1.27c0.24-.3,2.29-2.79,4-2.81,2.88,0,2.23,3.61,1.05,4.77-0.38.37-2.08,1.93-2.61,2.43-1.36,1.29-3.69.67-3.69-2.67,0,0-2.5,2.37-2.87,2.68s-1.67,1.68-1.67,1.68v5.88A5.7,5.7,0,0,1,98,61.28c-0.3.33-3.47,3.22-3.89,3.54l-1,0s1.86-1.69,2.23-2.07a4,4,0,0,0,.92-2.82c0-.38,0-9.23,0-9.23H81.69c-5,0-6.09-5.57-6.12-7.06,0-.44,0-4.89,0-5.58A3.73,3.73,0,0,0,74,35.13h1.42c0.16,0.07,1.05.43,1.05,3.84,0,0-.06,4-0.06,4.19a3.67,3.67,0,0,0,3.37,3.72l16.34,0a6.37,6.37,0,0,1,1.24-3c0.45-.5,4-3.7,4.35-4h1c-0.16.14-1.85,1.66-2.23,2.06m5.36,3.35a13.92,13.92,0,0,0,1.4,1.62c1.76,1.41,2.59-.1,1.41-1.73-0.47-.64-2.28-0.45-2.81.11" transform="translate(-28.81 -6.2)"/><path class="cls-2" d="M88.4,55.79c0,0.79-2.52,2.88-2.67,3C85.55,58,84.92,57,83,55.15L85.8,52.4c1.85,1.85,2.61,2.24,2.61,3.39" transform="translate(-28.81 -6.2)"/><path class="cls-2" d="M93.19,24.19c0.55,0.55,1.74,2.05,1,2.77s-1.61,1.63-1.61,1.63a4.36,4.36,0,0,0-1-1.23s0,2.66,0,3a2,2,0,0,1-.48,1.55,8,8,0,0,1,2.22,5c0,1.37,0,2.64,0,2.91a2,2,0,0,1-.55,1.47c-0.2.22-2.26,2.29-2.57,2.57a2.42,2.42,0,0,1-1.69.63H80.91c-1.21,0-2.45-.94-2.45-1.88,0-.24,0-2.84,0-2.84a2.07,2.07,0,0,0,1.76,1A3.06,3.06,0,0,0,82,39.95l5.79-6a47,47,0,0,0-4.33-3.57,1.48,1.48,0,0,0-2.12.89,19.4,19.4,0,0,0,0,5.79L79.22,34.9a2.94,2.94,0,0,1,.19-3.8,5.61,5.61,0,0,1,3.67-1.91h3.06c2.05,0,4.29,2,4.29,2a1.29,1.29,0,0,0,.33-0.71c0-1.05,0-3.89,0-3.89-1.54-1.54-1.75-3.14-1-3.88,1.38-1.38,1.88-1.87,1.88-1.87a5,5,0,0,0,1.59,3.28M83.58,39.57A6.22,6.22,0,0,1,82,41h8.63c2.34,0,1.87-1.45,1.45-2.18a32.76,32.76,0,0,0-3.57-4.29l-4.91,5.06" transform="translate(-28.81 -6.2)"/><path class="cls-2" d="M73.74,47.42H72.33a3.39,3.39,0,0,1,1.52,3V57.3c0,4.48,3.7,8.62,8.18,8.62h3.75a5.41,5.41,0,0,0,4.4-1.75c0.5-.44,1.15-1.17,1.38-1.44a4.76,4.76,0,0,0,1.62-3.89V56.58a4.14,4.14,0,0,0-1.67-3.3C91.17,52.93,90.21,52,90.21,52v4.62s0.95,1,1.36,1.33c1.95,1.54.4,4.21-1.41,4.21-0.36,0-7.73,0-8.23,0A7.29,7.29,0,0,1,74.8,55V51.27c0-3.84-1.05-3.84-1.05-3.84" transform="translate(-28.81 -6.2)"/><path class="cls-2" d="M82.77,55.8c0,0.79-2.52,2.88-2.67,3C79.92,58,79.28,57,77.4,55.17l2.76-2.76c1.85,1.85,2.61,2.24,2.61,3.4" transform="translate(-28.81 -6.2)"/><path class="cls-2" d="M53.94,86.42H49.53c-1.39,0-1.29-1.15-1.41-2.14V77.94s1,0,2.06,0a7.84,7.84,0,0,1,4.23.66A4.56,4.56,0,0,0,50.17,76H48.12V74a5.39,5.39,0,0,0-.43-2.29H50.6c2.52,0,4.47,0,6.5,1.31,0,0-.39-3.34-5.26-3.34H42.33A5.67,5.67,0,0,1,43.93,74L44,85.5c0,2.89,1.16,3,1.16,3h9.38a2.59,2.59,0,0,0,2.86-2.34l0-1.11s-0.67,1.39-3.47,1.39" transform="translate(-28.81 -6.2)"/><path class="cls-2" d="M78.9,85.44V77.38c0-3.13-2.56-4-4.46-4a3.85,3.85,0,0,0-3.6,2.83,4.22,4.22,0,0,0-4.14-2.85,4,4,0,0,0-3.82,2.9s-0.07-2.8-2.52-2.8H58s1.39,0.57,1.39,3v9c0,3,1.19,3,1.19,3H64.5a3.83,3.83,0,0,1-1.52-3V77.47a2.24,2.24,0,0,1,2.35-1.55,2.19,2.19,0,0,1,2,2.14v7.38c0,3,1.18,3,1.18,3h4a3.92,3.92,0,0,1-1.52-3V77.47a2.22,2.22,0,0,1,4.33.62s0,6.74,0,7.36c0,3,1.18,3,1.18,3h4a3.85,3.85,0,0,1-1.51-3" transform="translate(-28.81 -6.2)"/><path class="cls-2" d="M85.83,85.44a3.8,3.8,0,0,0,1.52,3H83.4s-1.21,0-1.21-3h0v-9c0-2.37-1.37-3-1.37-3h2.4c0.84,0,2.6,0,2.6,3.35v8.59h0Z" transform="translate(-28.81 -6.2)"/><path class="cls-2" d="M98,74.62a2,2,0,0,0-2-1.08c-2.48,0-3.09,2.95-3.09,2.95-0.2-2.33-.83-3-2.58-3h-2.4s1.39,0.57,1.39,3v9c0,3,1.19,3,1.19,3h3.95a3.82,3.82,0,0,1-1.52-3V78.07a2.14,2.14,0,0,1,1-1.51,3.11,3.11,0,0,1,4.1.6V74.62Z" transform="translate(-28.81 -6.2)"/><path class="cls-2" d="M116.43,75.16a5.07,5.07,0,0,1,2.34.58V73.49h-3.32V70.06a12.29,12.29,0,0,1-2.66,3,23,23,0,0,1-3.48,2.06l2.51,0V85.55c0,2.89,1.21,2.89,1.21,2.89H117a3.73,3.73,0,0,1-1.53-2.92V75.15h1" transform="translate(-28.81 -6.2)"/><path class="cls-2" d="M128.44,79.68c-2.22,2.32-4,2-5.35,3.65a4.1,4.1,0,0,0,2,3.11,3.42,3.42,0,0,0,4.62-1.57v2.41s-1,1.18-4.23,1.18c-3.88,0-6.54-3.05-6.54-7.19s2.17-7.85,6.26-7.87,6.18,3.22,3.27,6.26M126,78.73c0.66-1.21,1.17-4.29-1.07-4.12-2.6.2-2.1,7.1-2.1,7.1,0.87-.94,2.17-1.14,3.17-3" transform="translate(-28.81 -6.2)"/><path class="cls-2" d="M84,72.28a1.8,1.8,0,1,0-1.84-1.8A1.82,1.82,0,0,0,84,72.28" transform="translate(-28.81 -6.2)"/><path class="cls-2" d="M102.12,86.75a1.77,1.77,0,0,1-1.54-1.9c0-3.73,3.06-4.25,3.87-5.25v6.3a2.71,2.71,0,0,1-2.34.85m2.33-8.58c-0.92,1.61-8.07,2-7,7.48,0.43,2.19,1.89,2.83,3.73,2.83a3.57,3.57,0,0,0,3.31-1.8c0.27,1.67,1.11,1.76,1.11,1.76h4a3.77,3.77,0,0,1-1.54-3V77c0-2-2.23-3.57-4.6-3.57a6.51,6.51,0,0,0-3.71,1.1v2.61a3.32,3.32,0,0,1,2.87-2.07c2,0,2.16,1,2.15,1.5a2.11,2.11,0,0,1-.3,1.55" transform="translate(-28.81 -6.2)"/><path class="cls-2" d="M137.19,84.39a2.65,2.65,0,0,1-2.94,2.44,3.36,3.36,0,0,1-2.88-2.11V87.4a7,7,0,0,0,3.76,1.06c2.7,0,5.43-2.05,5.37-4.91a4.44,4.44,0,0,0-.93-2.6,13.69,13.69,0,0,0-3.87-2.88,2.5,2.5,0,0,1-1.13-1.55c0-.5.22-1.51,2.23-1.51a3.33,3.33,0,0,1,2.8,2.07v-2.5a6.54,6.54,0,0,0-3.78-1.19c-2.37,0-4.52,1.56-4.48,3.57a4.74,4.74,0,0,0,2.22,4,18.51,18.51,0,0,0,2,1.27,2.58,2.58,0,0,1,1.58,2.17" transform="translate(-28.81 -6.2)"/></svg>