<?xml version="1.0" encoding="utf-8"?>
<!-- Generator: Adobe Illustrator 19.1.0, SVG Export Plug-In . SVG Version: 6.00 Build 0)  -->
<!DOCTYPE svg PUBLIC "-//W3C//DTD SVG 1.1//EN" "http://www.w3.org/Graphics/SVG/1.1/DTD/svg11.dtd">
<svg version="1.1" id="Layer_1" xmlns="http://www.w3.org/2000/svg" xmlns:xlink="http://www.w3.org/1999/xlink" x="0px" y="0px"
	 width="632.7px" height="50px" viewBox="-493.6 282 632.7 50" enable-background="new -493.6 282 632.7 50" xml:space="preserve">
<g>
	<path d="M-201.4,300h-6.9c-0.9,0-5.1-0.1-6.1,0.3c-0.8,0.3-1.1,2.2-1.3,2.6c-0.2,0.8,0.4,1.6,2.2,2.1c6,1.5,16.7,1,14.7,8.2
		c-1,3.8-5.4,7.5-16.1,7.5h-11.9c0.7-2.6,1.1-3.6,1.9-4.1c0.7-0.6,2.1-0.7,4.6-0.7h6.4c1.1,0,5.6,0.1,6.6-0.2
		c0.7-0.3,1.1-1.9,1.2-2.3c0.6-2.1-3.2-3-5.3-3.4c-5.5-0.9-13.2-1.2-11.8-7.1c1.2-4.8,6.5-7.6,16.1-7.6h11.9
		C-196.2,299.7-196.5,300-201.4,300z"/>
	<path d="M-167.5,299.3c-0.7,0.5-2,0.6-4.5,0.6h-5.7c-1.4,0-6.4-0.2-7.7,0.8c-1.6,1.2-2.6,6.1-3,7.3c-1.4,4.9-0.7,8.1,6.3,8.1h5.3
		c5.1,0,5.4,0.2,4.2,4.6h-10.8c-12.9,0-14.3-6-12.4-12.7c1.8-6.8,6.6-12.7,19.4-12.7h10.8C-165.9,296.2-166.2,298.5-167.5,299.3z"/>
	<path d="M-156.9,321c-13.2,0-14.7-6.2-12.9-12.9c1.9-6.8,6.8-13,20-13c13.4,0,14.7,6.2,12.9,13C-138.7,314.8-143.5,321-156.9,321z
		 M-151.1,299.7c-9.1,0-9.1,0-11.3,8.3c-1.3,4.9-0.6,8.3,6.8,8.3c9.2,0,9.1,0,11.4-8.2C-142.9,303.1-143.5,299.7-151.1,299.7z"/>
	<path d="M-117.7,311.3l9.6,9.3h-4.9c-3.8,0-4.6-0.5-6.6-2.8l-6.1-7.1c-1-1.2-0.1-3.7,2.9-3.7h2.1c3.5,0,5.2,0.1,6.2-0.4
		c0.9-0.4,1.4-2.6,1.5-3.2c0.4-1.6,0.3-3.5-5.9-3.5h-5.4l-3,10.7l-2.8,10.1c-1.4,0-5,0.2-6.1-0.5c-0.6-0.5-0.6-1.5,0-3.5l4.7-17.3
		c0.6-2,0.7-3.7,4.3-4c0.7,0,1.8,0,3.3,0h6c12.9,0,13.1,4.7,12.2,8.1C-107.2,309.3-112.6,311.3-117.7,311.3z"/>
	<path d="M-77.3,300h-17.3l-1.4,5.6h10.3c2.6,0,3.9,0.1,4.4,0.6c0.9,0.8-0.1,3-0.3,4h-15.6l-1.7,6h11.5c2.8,0,4.2,0.1,4.8,0.6
		c1,0.8,0.1,3-0.3,4h-18c-1.3,0-4.3,0.2-5.2-0.5c-1-0.7-0.3-2.5,0-3.5l4.7-17.2c1.1-3.9,1.6-4,7.5-4h12.6c2.6,0,3.9,0.1,4.4,0.6
		C-76.1,296.7-76.9,299-77.3,300z"/>
	<path d="M-55.5,300h-6.9c-0.9,0-5.1-0.1-6.1,0.3c-0.8,0.3-1.1,2.2-1.3,2.6c-0.2,0.8,0.4,1.6,2.2,2.1c6,1.5,16.7,1,14.7,8.2
		c-1,3.8-5.4,7.5-16.1,7.5h-11.9c0.7-2.6,1.1-3.6,1.9-4.1c0.7-0.6,2.1-0.7,4.6-0.7h6.4c1.1,0,5.6,0.1,6.6-0.2
		c0.7-0.3,1.1-1.9,1.2-2.3c0.6-2.1-3.2-3-5.3-3.4c-5.5-0.9-13.2-1.2-11.8-7.1c1.2-4.8,6.5-7.6,16.1-7.6H-49
		C-50.3,299.7-50.7,300-55.5,300z"/>
	<path d="M-10,320.7c-4.8,0-4.4-0.5-6.5-2.9c-3.3,2.2-7,3.2-10.7,3.2c-8.5,0-12.2-3.2-10.9-8.2c1.2-4.4,6-6.3,9.9-7.2l-4.4-5.5
		c1.2-4.4,1.4-4.7,6.4-4.7h18.3c-1.2,4.3-1.5,4.7-6,4.7h-10.9l7.7,8.8l0.9-3.3c0.9-3.2,1.6-3.3,8-3.3c-1.2,4.3-3.8,9.4-4.6,10.7
		l7.3,7.7H-10z M-24.8,309.3c-5.1,0-5.1,0-6.1,3.5c-0.6,2.2,1,3.5,4.9,3.5c6.1,0,6.1,0,6.5-1.5L-24.8,309.3z"/>
	<path d="M32,300h-6.9c-0.9,0-5.1-0.1-6.1,0.3c-0.8,0.3-1.1,2.2-1.3,2.6c-0.2,0.8,0.4,1.6,2.2,2.1c6,1.5,16.7,1,14.7,8.2
		c-1,3.8-5.4,7.5-16.1,7.5H6.7c0.7-2.6,1.1-3.6,1.9-4.1c0.7-0.6,2.1-0.7,4.6-0.7h6.4c1.1,0,5.6,0.1,6.6-0.2c0.7-0.3,1.1-1.9,1.2-2.3
		c0.6-2.1-3.2-3-5.3-3.4c-5.5-0.9-13.2-1.2-11.8-7.1c1.2-4.8,6.5-7.6,16.1-7.6h11.9C37.3,299.7,36.9,300,32,300z"/>
	<path d="M63.2,298c-0.3,0.5-0.5,1-1.1,1.4c-0.7,0.5-2.1,0.6-4.6,0.6h-4.2l-5.7,20.7c-6.6,0-7.1-0.2-6-4l4.6-16.8h-9.4
		c1.2-4.2,1.5-4.6,6.2-4.6h21C63.6,296.9,63.3,297.5,63.2,298z"/>
	<path d="M81.3,320.6c-3.1-0.2-3.2-1-3.7-2.9l-0.4-1.8H62.3l-1.4,1.8c-2.4,3.1-2.1,2.9-10.3,2.9l17.5-22.2c2.3-3,2.7-3.1,6.9-3.1
		h4.3l6.2,25.4C83,320.7,82.2,320.7,81.3,320.6z M74.1,300.1l-8.7,11.7h11.1L74.1,300.1z"/>
	<path d="M112.3,298c-0.3,0.5-0.5,1-1.1,1.4c-0.7,0.5-2.1,0.6-4.6,0.6h-4.2l-5.7,20.7c-6.6,0-7.1-0.2-6-4l4.6-16.8h-9.4
		c1.2-4.2,1.5-4.6,6.2-4.6h21C112.7,296.9,112.5,297.5,112.3,298z"/>
	<path d="M132.2,300h-6.9c-0.9,0-5.1-0.1-6.1,0.3c-0.8,0.3-1.1,2.2-1.3,2.6c-0.2,0.8,0.4,1.6,2.2,2.1c6,1.5,16.7,1,14.7,8.2
		c-1,3.8-5.4,7.5-16.1,7.5h-11.9c0.7-2.6,1.1-3.6,1.9-4.1c0.7-0.6,2.1-0.7,4.6-0.7h6.4c1.1,0,5.6,0.1,6.6-0.2
		c0.7-0.3,1.1-1.9,1.2-2.3c0.6-2.1-3.2-3-5.3-3.4c-5.5-0.9-13.2-1.2-11.8-7.1c1.2-4.8,6.5-7.6,16.1-7.6h11.9
		C137.4,299.7,137,300,132.2,300z"/>
</g>
<path fill="#1D1D1B" d="M-305,300.5l-8.9,11.3h11.3L-305,300.5L-305,300.5z M-297.8,320.4c-3.1,0-3.1-1-3.8-2.7l-0.3-1.7H-317
	l-1.4,1.7c-2.4,3.1-2.1,2.7-10.3,2.7l17.8-21.6c2.4-2.7,2.7-3.1,6.8-3.1h4.5l6.2,24.7C-296.1,320.4-296.8,320.4-297.8,320.4
	L-297.8,320.4z"/>
<path fill="#1D1D1B" d="M-264.9,298.4c-0.3,0.7-0.7,1-1,1.4c-0.7,0.3-2.1,0.3-4.8,0.3h-4.1l-5.8,20.2c-6.8,0-7.2,0-6.2-3.8l4.8-16.4
	h-9.6c1.4-4.1,1.7-4.5,6.2-4.5h21.2C-264.6,297.1-264.6,297.8-264.9,298.4L-264.9,298.4z"/>
<path fill="#1D1D1B" d="M-248.8,300.2h-5.5l-2.1,7.9h5.8c6.8,0,6.8,0,7.9-4.1C-242.3,302.2-242.3,300.2-248.8,300.2L-248.8,300.2z
	 M-251.9,312.1h-5.8l-1.4,4.5l-1,4.1c-1.4,0-5.1,0.3-6.2-0.7c-0.7-0.7-0.7-1.4,0-3.4l4.8-16.8c0.7-2.1,0.7-3.8,4.1-3.8
	c0.7,0,1.7,0,3.4,0h6.2c13.4,0,13.4,4.8,12.3,8.2C-236.1,307.3-238.5,312.1-251.9,312.1L-251.9,312.1z"/>
<g>
	<polygon fill="#1D1D1B" points="-240.6,318.6 -240.3,318 -238.2,318 -238.5,318.6 -239.2,318.6 -239.6,320.4 -240.3,320.4 
		-239.6,318.6 	"/>
	<polygon fill="#1D1D1B" points="-237.5,318 -237.2,319.7 -237.2,319.7 -236.1,318 -235.5,318 -236.1,320.4 -236.5,320.4 
		-236.1,318.6 -236.1,318.6 -237.2,320.4 -237.5,320.4 -237.9,318.6 -237.9,318.6 -238.2,320.4 -238.5,320.4 -238.2,318 	"/>
</g>
<g>
	<path fill="#007CC2" d="M-493.6,282.3v35.4c0,7.2,5.8,13,13,13h119.9l39.3-48.4H-493.6z"/>
	<g>
		<path fill-rule="evenodd" clip-rule="evenodd" fill="#FFFFFF" d="M-363,295.3c1.8,0,3.3-1.5,3.3-3.3c0-1.8-1.5-3.3-3.3-3.3
			c-1.8,0-3.3,1.5-3.3,3.3C-366.3,293.9-364.8,295.3-363,295.3L-363,295.3z M-365.8,292c0-1.6,1.3-2.8,2.8-2.8
			c1.6,0,2.8,1.3,2.8,2.8c0,1.6-1.3,2.8-2.8,2.8C-364.5,294.8-365.8,293.6-365.8,292L-365.8,292z M-364.2,293.7h0.6v-1.4h0.7
			l0.6,1.4h0.7l-0.7-1.5c0.2-0.1,0.6-0.2,0.6-0.9c0-1-0.8-1.1-1.4-1.1h-1.2V293.7L-364.2,293.7z M-363.6,290.8h0.7
			c0.4,0,0.6,0.2,0.6,0.5c0,0.3-0.2,0.5-0.5,0.5h-0.8V290.8L-363.6,290.8z"/>
		<polygon fill-rule="evenodd" clip-rule="evenodd" fill="#FFFFFF" points="-469.8,293.5 -469.8,293.5 -469.8,289.5 -465.8,289.5 
			-465.8,293.5 -465.8,293.5 -465.8,318.3 -465.8,318.4 -465.8,322.3 -469.8,322.3 -469.8,318.4 -469.8,318.3 -469.8,293.5 		"/>
		<path fill-rule="evenodd" clip-rule="evenodd" fill="#FFFFFF" d="M-429.7,310.4c0.1,5.9,3.8,10.7,8.3,10.6c4.5-0.1,8-5,7.9-10.9
			c-0.1-6-3.8-10.7-8.3-10.6C-426.3,299.5-429.8,304.4-429.7,310.4L-429.7,310.4z M-397.1,303.2c0.1,0.2-0.1-0.3-0.1-0.3
			L-397.1,303.2L-397.1,303.2z M-394.4,327.8c0.2-0.3,0.4-0.8,0.7-1.4L-394.4,327.8L-394.4,327.8z M-394.2,301.1
			c0,0.1,0.1,0.3,0.2,0.4l1.3,3.2L-394.2,301.1L-394.2,301.1z M-410.7,317.4c2.4,2.2,4.6,3.4,7.4,3.4c2.9,0,5.4-1.4,5.4-4.1
			c0-2.3-2-3.6-5.6-5.1c-3-1.3-5.3-2.2-6.5-4.1c0.1,0.8,0.2,1.7,0.2,2.5c0,7.3-5.3,13.2-11.8,13.2c-6.5,0-11.8-5.9-11.8-13.2
			c0-4.4,1.9-8.3,4.9-10.7h-8v19v0.1v3.9h-3.6v-3.8c0-0.1,0-0.1,0-0.2v-19h-3.1V297h3.2c0.4-4.8,3.4-7.5,7.5-7.5
			c2.7,0,4.1,0.3,5,0.7v3.3c0,0.2,0,0.4,0,0.4c0,0-0.1,0-0.1,0c-1.3-1.2-2.6-2.1-5.5-2.1c-2.4,0-3.9,1.9-3.4,5.3h13.3
			c0.6-0.1,1.1-0.1,1.7-0.1c4.7,0,8.8,3.1,10.7,7.6c0-0.2,0-0.5,0-0.8c0-4.7,4.5-6.7,9.3-6.7c0.2,0,0.4,0,0.5,0c1.7,0,4,0.5,5.5,0.9
			l1.3,3.2l1.5,3.7l4,9.8l0.5,1.6l0.5-1.6l5.1-12.5c0.9-3.5,4.6-5,8.7-4.9c2,0,3.5,0.2,5.3,0.9v3.8c-2.2-1.6-3.8-2.5-6.3-2.5
			c-2.2,0-4.9,1-4.9,4.2c0,2.4,1.4,2.9,5.7,5c3.5,1.5,6.8,3.2,6.8,7.2c0,6.5-6.5,7.7-9.6,7.7c-2.8,0-5.4-0.7-6.8-1.9v-4.3l0.2,0.2
			c2.6,2.4,4.8,3.6,7.7,3.6c2.9,0,5.4-1.4,5.4-4.1c0-2.3-2-3.6-5.6-5.1c-3.4-1.5-5.7-2.5-6.6-4.9c-1.4,3.4-7.9,19.2-9.4,22.5h-3.5
			l0.8-1.5l0.7-1.4l0,0c0.9-1.7,2.2-4.4,3.3-7l-6.7-16.2c0-0.1-0.2-0.3-0.4-0.9c-0.5-1.2-1-2.3-2.4-2.8c-0.8-0.3-1.6-0.4-2.6-0.4
			c-2.2,0-5,1-5,4.2c0,2.4,1.6,2.9,5.9,5c3.5,1.5,6.8,3.2,6.8,7.2c0,6.5-6.5,7.7-9.6,7.7c-2.5,0-4.8-0.5-6.3-1.5V317.4L-410.7,317.4
			z"/>
		<path fill-rule="evenodd" clip-rule="evenodd" fill="#FFFFFF" d="M-458.5,297.2l0,2.9l0,0.2h0c0-0.1,0.1-0.2,0.2-0.3
			c1.4-1.6,3.3-3.1,7.6-3.1c4.2,0,6.8,3.5,6.9,5.7l0,15.7v0.1v3.9h-3.6v-4.7l0-13.4c0-2.8-2.4-4.8-5.4-4.8c-2.5,0-5.6,2.2-5.7,4.5
			v14.4v0.1v3.9h-3.6v-4v-17.8v-3.3h0.6h1.9H-458.5L-458.5,297.2z"/>
	</g>
</g>
</svg>
