<?xml version="1.0" encoding="utf-8"?>
<!-- Generator: Adobe Illustrator 19.2.0, SVG Export Plug-In . SVG Version: 6.00 Build 0)  -->
<svg version="1.1" id="Layer_1" xmlns="http://www.w3.org/2000/svg" xmlns:xlink="http://www.w3.org/1999/xlink" x="0px" y="0px"
	 viewBox="0 0 914.7 50" style="enable-background:new 0 0 914.7 50;" xml:space="preserve">
<style type="text/css">
	.st0{fill:#FFFFFF;}
	.st1{fill:#0067B5;}
</style>
<g>
	<path class="st0" d="M199.5,16.5c-0.3,0.5-0.5,1-1.1,1.4c-0.7,0.5-2.1,0.6-4.6,0.6h-4.2l-5.7,20.7c-6.6,0-7.1-0.2-6-4l4.6-16.8
		h-9.4c1.2-4.2,1.5-4.6,6.2-4.6h21C199.8,15.4,199.6,16,199.5,16.5z"/>
	<path class="st0" d="M224.8,18.5h-17.3l-1.4,5.6h10.3c2.6,0,3.9,0.1,4.4,0.6c0.9,0.8-0.1,3-0.3,4h-15.6l-1.7,6h11.5
		c2.8,0,4.2,0.1,4.8,0.6c1,0.8,0.1,3-0.3,4h-18c-1.3,0-4.3,0.2-5.2-0.5c-1-0.7-0.3-2.5,0-3.5l4.7-17.2c1.1-3.9,1.6-4,7.5-4h12.6
		c2.6,0,3.9,0.1,4.4,0.6C226,15.2,225.1,17.5,224.8,18.5z"/>
	<path class="st0" d="M251.8,17.8c-0.7,0.5-2,0.6-4.5,0.6h-5.7c-1.4,0-6.4-0.2-7.7,0.8c-1.6,1.2-2.6,6.1-3,7.3
		c-1.4,4.9-0.7,8.1,6.3,8.1h5.3c5.1,0,5.4,0.2,4.2,4.6h-10.8c-12.9,0-14.3-6-12.4-12.7c1.8-6.8,6.6-12.7,19.4-12.7h10.8
		C253.5,14.7,253.1,17,251.8,17.8z"/>
	<path class="st0" d="M278.6,39.2c-2.2,0-3.4,0-4.1,0c-3.3-0.2-2.7-1.8-2.1-4l1.8-6.6h-14.5l-2.9,10.6c-6.7,0-7.2-0.2-6.1-4
		l5.8-21.3c6.7,0,7.2,0.1,6.1,4l-1.7,6.2h14.5l2.8-10.1c6.8,0,7.3,0.1,6.2,4L278.6,39.2z"/>
	<path class="st0" d="M314.4,39.2h-3.5c-4.5,0-4.6-0.4-6.1-3l-9.5-15.1l-5,18c-6.7,0-7.2-0.2-6.1-4l1.5-5.4l4.4-16.1h3.4
		c4.1,0,4.7-0.1,6.4,2.7l9.4,15.2l4-14.4c0.9-3.4,1.6-3.5,8.2-3.5L314.4,39.2z"/>
	<path class="st0" d="M333.9,39.5c-13.2,0-14.7-6.2-12.9-12.9c1.9-6.8,6.8-13,20-13c13.4,0,14.7,6.2,12.9,13
		C352.1,33.3,347.3,39.5,333.9,39.5z M339.7,18.2c-9.1,0-9.1,0-11.3,8.3c-1.3,4.9-0.6,8.3,6.8,8.3c9.2,0,9.1,0,11.4-8.2
		C348,21.6,347.3,18.2,339.7,18.2z"/>
	<path class="st0" d="M373.3,39.2h-13.7c-5.2,0-6.1,0-5-4l5.9-21.3c1.4,0,5.1-0.2,6.1,0.5c0.6,0.5,0.6,1.5,0,3.5L362,34.7h7.3
		c2.6,0,3.7,0.1,4.3,0.6C374.5,36,373.6,38.2,373.3,39.2z"/>
	<path class="st0" d="M387.9,39.5c-13.2,0-14.7-6.2-12.9-12.9c1.9-6.8,6.8-13,20-13c13.4,0,14.7,6.2,12.9,13
		C406,33.3,401.2,39.5,387.9,39.5z M393.7,18.2c-9.1,0-9.1,0-11.3,8.3c-1.3,4.9-0.6,8.3,6.8,8.3c9.2,0,9.1,0,11.4-8.2
		C401.9,21.6,401.3,18.2,393.7,18.2z"/>
	<path class="st0" d="M440.5,17.9c-0.7,0.5-2.1,0.6-4.6,0.6H428c-1.4,0-6.4-0.2-7.7,0.8c-1.6,1.2-2.7,6-3,7.3
		c-1.4,4.9-0.6,8.4,6.2,8.4c8.2,0,8.3-0.1,10.2-6.3h-8.4c-4.1,0-4.2-0.4-3.1-4.6h19.9l-4.2,15.2c-5,0-5.9-0.2-5.4-2.5
		c-2.6,1.7-6,2.8-10.5,2.8c-12.1,0-13.9-6.2-12-12.9c1.8-6.8,6.6-12.6,19.4-12.6h13.1C442.1,14.7,441.8,17,440.5,17.9z"/>
	<path class="st0" d="M458.3,31.4l-2.2,7.7c-1.3,0-5.2,0.2-6.2-0.5c-0.7-0.5-0.6-1.4-0.2-3.4l1.1-3.8l-8.2-17.6
		c4.6,0,5.8,0.1,6.7,0.5c1.3,0.5,1.8,1.9,2.1,2.8l3.8,9.9l9.8-9.9c3.3-3.3,3.5-3.3,11.5-3.3L458.3,31.4z"/>
	<path class="st0" d="M507.5,18.5h-6.9c-0.9,0-5.1-0.1-6.1,0.3c-0.8,0.3-1.1,2.2-1.3,2.6c-0.2,0.8,0.4,1.6,2.2,2.1
		c6,1.5,16.7,1,14.7,8.2c-1,3.8-5.4,7.5-16.1,7.5h-11.9c0.7-2.6,1.1-3.6,1.9-4.1c0.7-0.6,2.1-0.7,4.6-0.7h6.4c1.1,0,5.6,0.1,6.6-0.2
		c0.7-0.3,1.1-1.9,1.2-2.3c0.6-2.1-3.2-3-5.3-3.4c-5.5-0.9-13.2-1.2-11.8-7.1c1.2-4.8,6.5-7.6,16.1-7.6h11.9
		C512.8,18.2,512.4,18.5,507.5,18.5z"/>
	<path class="st0" d="M540.7,18.5h-17.2l-1.4,5.6h10.3c2.6,0,3.9,0.1,4.4,0.6c0.9,0.8-0.1,3-0.3,4h-15.7l-1.7,6h11.5
		c2.8,0,4.2,0.1,4.8,0.6c1,0.8,0.1,3-0.3,4h-18c-1.3,0-4.3,0.2-5.2-0.5c-1-0.7-0.3-2.5,0-3.5l4.7-17.2c1.1-3.9,1.6-4,7.5-4h12.6
		c2.6,0,3.9,0.1,4.4,0.6C541.9,15.2,541.1,17.5,540.7,18.5z"/>
	<path class="st0" d="M557.5,29.8l9.6,9.3h-4.9c-3.8,0-4.6-0.5-6.6-2.8l-6.1-7.1c-1-1.2-0.1-3.7,2.9-3.7h2.1c3.5,0,5.2,0.1,6.2-0.4
		c0.9-0.4,1.4-2.6,1.5-3.2c0.4-1.6,0.3-3.5-5.9-3.5h-5.4l-3,10.7l-2.8,10.1c-1.4,0-5,0.2-6.1-0.5c-0.6-0.5-0.6-1.5,0-3.5l4.7-17.3
		c0.6-2,0.7-3.7,4.3-4c0.7,0,1.8,0,3.3,0h6c12.9,0,13.1,4.7,12.2,8.1C568,27.8,562.6,29.8,557.5,29.8z"/>
	<path class="st0" d="M588,35.7c-0.7,0.8-1.8,2.3-2.9,2.9c-0.9,0.5-1.9,0.5-3.8,0.5h-4.2l-6.3-25.4c1.6,0,5.2-0.2,6.6,0.5
		c1,0.5,1.3,1.4,1.7,3.3l3.3,16.4l12.4-16.4c2.9-3.9,2.9-3.8,11-3.8L588,35.7z"/>
	<path class="st0" d="M606.4,39.2c-6.7,0-7.2-0.2-6.2-3.9l5.9-21.4c6.7,0,7.2,0.1,6.2,3.7L606.4,39.2z"/>
	<path class="st0" d="M641.3,17.8c-0.7,0.5-2,0.6-4.5,0.6h-5.7c-1.4,0-6.4-0.2-7.7,0.8c-1.6,1.2-2.6,6.1-3,7.3
		c-1.4,4.9-0.7,8.1,6.3,8.1h5.3c5.1,0,5.4,0.2,4.2,4.6h-10.8c-12.9,0-14.3-6-12.4-12.7c1.8-6.8,6.6-12.7,19.4-12.7h10.8
		C643,14.7,642.6,17,641.3,17.8z"/>
	<path class="st0" d="M669.2,18.5h-17.3l-1.4,5.6h10.3c2.6,0,3.9,0.1,4.4,0.6c0.9,0.8-0.1,3-0.3,4h-15.6l-1.7,6h11.5
		c2.8,0,4.2,0.1,4.8,0.6c1,0.8,0.1,3-0.3,4h-18c-1.3,0-4.3,0.2-5.2-0.5c-1-0.7-0.3-2.5,0-3.5l4.7-17.2c1.1-3.9,1.6-4,7.5-4h12.5
		c2.6,0,3.9,0.1,4.4,0.6C670.4,15.2,669.5,17.5,669.2,18.5z"/>
	<path class="st0" d="M691,18.5h-6.9c-0.9,0-5.1-0.1-6.1,0.3c-0.8,0.3-1.1,2.2-1.3,2.6c-0.2,0.8,0.4,1.6,2.2,2.1
		c6,1.5,16.7,1,14.7,8.2c-1,3.8-5.4,7.5-16.1,7.5h-11.9c0.7-2.6,1.1-3.6,1.9-4.1c0.7-0.6,2.1-0.7,4.6-0.7h6.4c1.1,0,5.6,0.1,6.6-0.2
		c0.7-0.3,1.1-1.9,1.2-2.3c0.6-2.1-3.2-3-5.3-3.4c-5.5-0.9-13.2-1.2-11.8-7.1c1.2-4.8,6.5-7.6,16.1-7.6h11.9
		C696.2,18.2,695.8,18.5,691,18.5z"/>
	<path class="st0" d="M722.4,30.8h-5.8l-1.2,4.4l-1.1,4c-1.4,0-5,0.2-6.1-0.5c-0.6-0.5-0.6-1.5,0-3.5l4.7-17.3c0.6-2,0.7-3.7,4.3-4
		c0.7,0,1.8,0,3.3,0h6.2c13.1,0,13.1,4.8,12.1,8.4C737.8,25.8,735.6,30.8,722.4,30.8z M725.6,18.4H720l-2.2,7.9h5.7
		c6.7,0,6.8,0,7.9-4C731.9,20.6,732,18.4,725.6,18.4z"/>
	<path class="st0" d="M760.1,39.1c-3.1-0.2-3.2-1-3.7-2.9l-0.3-1.7h-14.9l-1.4,1.8c-2.4,3.1-2.1,2.9-10.3,2.9L747,17
		c2.3-3,2.7-3.1,6.9-3.1h4.3l6.2,25.4C761.8,39.2,761,39.2,760.1,39.1z M752.9,18.6l-8.7,11.7h11.1L752.9,18.6z"/>
	<path class="st0" d="M784.4,29.8l9.6,9.3h-4.9c-3.8,0-4.6-0.5-6.6-2.8l-6.1-7.1c-1-1.2-0.1-3.7,2.9-3.7h2.1c3.5,0,5.2,0.1,6.2-0.4
		c0.9-0.4,1.4-2.6,1.5-3.2c0.4-1.6,0.3-3.5-5.9-3.5h-5.4l-3,10.7L772,39.2c-1.4,0-5,0.2-6.1-0.5c-0.6-0.5-0.6-1.5,0-3.5l4.7-17.3
		c0.6-2,0.7-3.7,4.3-4c0.7,0,1.8,0,3.3,0h6c12.9,0,13.1,4.7,12.2,8.1C794.9,27.8,789.5,29.8,784.4,29.8z"/>
	<path class="st0" d="M823.8,16.5c-0.3,0.5-0.5,1-1.1,1.4c-0.7,0.5-2.1,0.6-4.6,0.6h-4.2l-5.7,20.7c-6.6,0-7.1-0.2-6-4l4.6-16.8
		h-9.4c1.2-4.2,1.5-4.6,6.2-4.6h21C824.2,15.4,824,16,823.8,16.5z"/>
	<path class="st0" d="M850.5,39.2H847c-4.5,0-4.6-0.4-6.1-3l-9.5-15.1l-5,18c-6.7,0-7.2-0.2-6.1-4l1.5-5.4l4.4-16.1h3.4
		c4.1,0,4.7-0.1,6.4,2.7l9.4,15.2l4-14.4c0.9-3.4,1.6-3.5,8.2-3.5L850.5,39.2z"/>
	<path class="st0" d="M885,18.5h-17.3l-1.4,5.6h10.3c2.6,0,3.9,0.1,4.4,0.6c0.9,0.8-0.1,3-0.3,4h-15.6l-1.7,6h11.5
		c2.8,0,4.2,0.1,4.8,0.6c1,0.8,0.1,3-0.3,4h-18c-1.3,0-4.3,0.2-5.2-0.5c-1-0.7-0.3-2.5,0-3.5l4.7-17.2c1.1-3.9,1.6-4,7.5-4H881
		c2.6,0,3.9,0.1,4.4,0.6C886.2,15.2,885.4,17.5,885,18.5z"/>
	<path class="st0" d="M901.8,29.8l9.6,9.3h-4.9c-3.8,0-4.6-0.5-6.6-2.8l-6.1-7.1c-1-1.2-0.1-3.7,2.9-3.7h2.1c3.5,0,5.2,0.1,6.2-0.4
		c0.9-0.4,1.4-2.6,1.5-3.2c0.4-1.6,0.3-3.5-5.9-3.5h-5.4l-3,10.7l-2.8,10.1c-1.4,0-5,0.2-6.1-0.5c-0.6-0.5-0.6-1.5,0-3.5l4.7-17.3
		c0.6-2,0.7-3.7,4.3-4c0.7,0,1.8,0,3.3,0h6c12.9,0,13.1,4.7,12.2,8.1C912.3,27.8,906.9,29.8,901.8,29.8z"/>
</g>
<g>
	<path class="st1" d="M0.5,0.8v35.4c0,7.2,5.8,13,13,13h119.9l39.3-48.4H0.5z"/>
	<g>
		<path class="st0" d="M131.1,13.8c1.8,0,3.3-1.5,3.3-3.3s-1.5-3.3-3.3-3.3s-3.3,1.5-3.3,3.3C127.8,12.4,129.3,13.8,131.1,13.8
			L131.1,13.8z M128.3,10.5c0-1.6,1.3-2.8,2.8-2.8c1.6,0,2.8,1.3,2.8,2.8c0,1.6-1.3,2.8-2.8,2.8S128.3,12.1,128.3,10.5L128.3,10.5z
			 M129.9,12.2h0.6v-1.4h0.7l0.6,1.4h0.7l-0.7-1.5c0.2-0.1,0.6-0.2,0.6-0.9c0-1-0.8-1.1-1.4-1.1h-1.2L129.9,12.2L129.9,12.2z
			 M130.5,9.3h0.7c0.4,0,0.6,0.2,0.6,0.5s-0.2,0.5-0.5,0.5h-0.8L130.5,9.3L130.5,9.3z"/>
		<polygon class="st0" points="24.3,12 24.3,12 24.3,8 28.3,8 28.3,12 28.3,12 28.3,36.8 28.3,36.9 28.3,40.8 24.3,40.8 24.3,36.9 
			24.3,36.8 		"/>
		<path class="st0" d="M64.4,28.9c0.1,5.9,3.8,10.7,8.3,10.6s8-5,7.9-10.9c-0.1-6-3.8-10.7-8.3-10.6C67.8,18,64.3,22.9,64.4,28.9
			L64.4,28.9z M97,21.7c0.1,0.2-0.1-0.3-0.1-0.3L97,21.7L97,21.7z M99.7,46.3c0.2-0.3,0.4-0.8,0.7-1.4L99.7,46.3L99.7,46.3z
			 M99.9,19.6c0,0.1,0.1,0.3,0.2,0.4l1.3,3.2L99.9,19.6L99.9,19.6z M83.4,35.9c2.4,2.2,4.6,3.4,7.4,3.4c2.9,0,5.4-1.4,5.4-4.1
			c0-2.3-2-3.6-5.6-5.1c-3-1.3-5.3-2.2-6.5-4.1c0.1,0.8,0.2,1.7,0.2,2.5c0,7.3-5.3,13.2-11.8,13.2s-11.8-5.9-11.8-13.2
			c0-4.4,1.9-8.3,4.9-10.7h-8v19v0.1v3.9H54V37c0-0.1,0-0.1,0-0.2v-19h-3.1v-2.3h3.2c0.4-4.8,3.4-7.5,7.5-7.5c2.7,0,4.1,0.3,5,0.7
			V12c0,0.2,0,0.4,0,0.4h-0.1c-1.3-1.2-2.6-2.1-5.5-2.1c-2.4,0-3.9,1.9-3.4,5.3h13.3c0.6-0.1,1.1-0.1,1.7-0.1
			c4.7,0,8.8,3.1,10.7,7.6c0-0.2,0-0.5,0-0.8c0-4.7,4.5-6.7,9.3-6.7c0.2,0,0.4,0,0.5,0c1.7,0,4,0.5,5.5,0.9l1.3,3.2l1.5,3.7l4,9.8
			l0.5,1.6l0.5-1.6l5.1-12.5c0.9-3.5,4.6-5,8.7-4.9c2,0,3.5,0.2,5.3,0.9v3.8c-2.2-1.6-3.8-2.5-6.3-2.5c-2.2,0-4.9,1-4.9,4.2
			c0,2.4,1.4,2.9,5.7,5c3.5,1.5,6.8,3.2,6.8,7.2c0,6.5-6.5,7.7-9.6,7.7c-2.8,0-5.4-0.7-6.8-1.9v-4.3l0.2,0.2
			c2.6,2.4,4.8,3.6,7.7,3.6c2.9,0,5.4-1.4,5.4-4.1c0-2.3-2-3.6-5.6-5.1c-3.4-1.5-5.7-2.5-6.6-4.9c-1.4,3.4-7.9,19.2-9.4,22.5h-3.5
			l0.8-1.5l0.7-1.4l0,0c0.9-1.7,2.2-4.4,3.3-7L96.7,22c0-0.1-0.2-0.3-0.4-0.9c-0.5-1.2-1-2.3-2.4-2.8c-0.8-0.3-1.6-0.4-2.6-0.4
			c-2.2,0-5,1-5,4.2c0,2.4,1.6,2.9,5.9,5c3.5,1.5,6.8,3.2,6.8,7.2c0,6.5-6.5,7.7-9.6,7.7c-2.5,0-4.8-0.5-6.3-1.5v-4.6H83.4z"/>
		<path class="st0" d="M35.6,15.7v2.9v0.2l0,0c0-0.1,0.1-0.2,0.2-0.3c1.4-1.6,3.3-3.1,7.6-3.1c4.2,0,6.8,3.5,6.9,5.7v15.7v0.1v3.9
			h-3.6v-4.7V22.7c0-2.8-2.4-4.8-5.4-4.8c-2.5,0-5.6,2.2-5.7,4.5v14.4v0.1v3.9H32v-4V19v-3.3h0.6h1.9L35.6,15.7L35.6,15.7z"/>
	</g>
</g>
</svg>
