<svg xmlns="http://www.w3.org/2000/svg" xmlns:xlink="http://www.w3.org/1999/xlink" viewBox="0 0 264 153"><defs><style>.cls-1{isolation:isolate;}.cls-2{fill:#231f20;}.cls-3{fill:url(#linear-gradient);}.cls-4{fill:url(#linear-gradient-2);}.cls-5{fill:url(#linear-gradient-3);}.cls-6{fill:url(#linear-gradient-4);}.cls-7{fill:url(#linear-gradient-5);}.cls-8{fill:url(#radial-gradient);}.cls-10,.cls-11,.cls-9{opacity:0.85;}.cls-10,.cls-11,.cls-17,.cls-18,.cls-9{mix-blend-mode:multiply;}.cls-9{fill:url(#radial-gradient-2);}.cls-10{fill:url(#radial-gradient-3);}.cls-11{fill:url(#radial-gradient-4);}.cls-12{fill:url(#linear-gradient-6);}.cls-13{fill:#848689;}.cls-14{fill:url(#linear-gradient-7);}.cls-15{fill:url(#linear-gradient-8);}.cls-16{fill:url(#linear-gradient-9);}.cls-17{fill:url(#linear-gradient-10);}.cls-18{fill:url(#linear-gradient-11);}.cls-19{fill:url(#linear-gradient-12);}.cls-20{fill:url(#linear-gradient-13);}.cls-21{fill:url(#linear-gradient-14);}.cls-22{fill:url(#linear-gradient-15);}.cls-23{fill:url(#linear-gradient-16);}.cls-24{fill:url(#linear-gradient-17);}.cls-25{fill:url(#linear-gradient-18);}.cls-26{fill:url(#linear-gradient-19);}.cls-27{fill:url(#linear-gradient-20);}.cls-28{fill:url(#linear-gradient-21);}.cls-29{fill:url(#linear-gradient-22);}.cls-30{fill:url(#linear-gradient-23);}.cls-31{fill:#002157;}</style><linearGradient id="linear-gradient" x1="153.91" y1="43.97" x2="136.9" y2="70.01" gradientUnits="userSpaceOnUse"><stop offset="0.2" stop-color="#d1d3d4"/><stop offset="0.21" stop-color="#cacccd"/><stop offset="0.24" stop-color="#a2a3a5"/><stop offset="0.28" stop-color="#828385"/><stop offset="0.31" stop-color="#6b6c6e"/><stop offset="0.34" stop-color="#5d5e60"/><stop offset="0.37" stop-color="#58595b"/><stop offset="0.45" stop-color="#5e5f61"/><stop offset="0.56" stop-color="#6e6f72"/><stop offset="0.68" stop-color="#898b8d"/><stop offset="0.81" stop-color="#afb1b4"/><stop offset="0.81" stop-color="#afb1b4"/><stop offset="1" stop-color="#231f20"/></linearGradient><linearGradient id="linear-gradient-2" x1="106.14" y1="62.88" x2="109.23" y2="55.82" gradientUnits="userSpaceOnUse"><stop offset="0.03" stop-color="#b1b3b6"/><stop offset="0.2" stop-color="#b1b3b6"/><stop offset="0.99" stop-color="#6d6e71"/></linearGradient><linearGradient id="linear-gradient-3" x1="148.22" y1="45.93" x2="144.42" y2="45.57" gradientUnits="userSpaceOnUse"><stop offset="0.2" stop-color="#58595b"/><stop offset="0.26" stop-color="#5a5b5d"/><stop offset="0.29" stop-color="#616264"/><stop offset="0.3" stop-color="#6c6d6f"/><stop offset="0.32" stop-color="#7d7e80"/><stop offset="0.33" stop-color="#939495"/><stop offset="0.34" stop-color="#afafb0"/><stop offset="0.35" stop-color="#cfcfd0"/><stop offset="0.36" stop-color="#f3f3f4"/><stop offset="0.36" stop-color="#fff"/><stop offset="0.82" stop-color="#58595b"/><stop offset="1" stop-color="#414042"/></linearGradient><linearGradient id="linear-gradient-4" x1="114.07" y1="66.6" x2="117.19" y2="59.45" gradientUnits="userSpaceOnUse"><stop offset="0" stop-color="#d1d3d4"/><stop offset="0.1" stop-color="#c4c6c8"/><stop offset="0.24" stop-color="#b6b8ba"/><stop offset="0.37" stop-color="#b1b3b6"/><stop offset="0.99" stop-color="#231f20"/></linearGradient><linearGradient id="linear-gradient-5" x1="144.45" y1="100.32" x2="88.66" y2="43.57" gradientUnits="userSpaceOnUse"><stop offset="0.08" stop-color="#939598"/><stop offset="0.12" stop-color="#9d9fa2"/><stop offset="0.17" stop-color="#808285"/><stop offset="0.31" stop-color="#939598"/><stop offset="0.47" stop-color="#f1f2f2"/><stop offset="0.7" stop-color="#f1f2f2"/><stop offset="0.73" stop-color="#e2e3e3"/><stop offset="0.78" stop-color="#babbbd"/><stop offset="0.84" stop-color="#848689"/><stop offset="0.96" stop-color="#58595b"/></linearGradient><radialGradient id="radial-gradient" cx="120.31" cy="50.97" r="12.72" gradientUnits="userSpaceOnUse"><stop offset="0.04" stop-color="#fff"/><stop offset="0.47" stop-color="#fff"/><stop offset="0.52" stop-color="#fbfbfb"/><stop offset="0.58" stop-color="#eeefef"/><stop offset="0.64" stop-color="#dadadc"/><stop offset="0.7" stop-color="#bdbec0"/><stop offset="0.75" stop-color="#9d9fa2"/><stop offset="0.85" stop-color="#808285"/><stop offset="1" stop-color="#58595b"/></radialGradient><radialGradient id="radial-gradient-2" cx="123.16" cy="63.2" r="4.49" gradientTransform="translate(0 -12.49) scale(1 0.96)" gradientUnits="userSpaceOnUse"><stop offset="0.04" stop-color="#fff"/><stop offset="0.23" stop-color="#fff"/><stop offset="0.3" stop-color="#f6f6f6"/><stop offset="0.42" stop-color="#dddcdc"/><stop offset="0.57" stop-color="#b4b3b3"/><stop offset="0.75" stop-color="#7c7a7a"/><stop offset="0.95" stop-color="#353132"/><stop offset="1" stop-color="#231f20"/></radialGradient><radialGradient id="radial-gradient-3" cx="120.36" cy="41.35" r="5.28" gradientUnits="userSpaceOnUse"><stop offset="0.23" stop-color="#fff"/><stop offset="0.57" stop-color="#f3f4f4"/><stop offset="0.86" stop-color="#231f20"/></radialGradient><radialGradient id="radial-gradient-4" cx="129.21" cy="51.66" r="17.79" gradientUnits="userSpaceOnUse"><stop offset="0.04" stop-color="#fff"/><stop offset="0.25" stop-color="#fff"/><stop offset="0.27" stop-color="#fbfbfb"/><stop offset="0.29" stop-color="#eeefef"/><stop offset="0.31" stop-color="#dadbdc"/><stop offset="0.33" stop-color="#bdbec1"/><stop offset="0.35" stop-color="#a7a9ac"/><stop offset="0.41" stop-color="#808285"/><stop offset="0.47" stop-color="#58595b"/><stop offset="0.86" stop-color="#58595b"/></radialGradient><linearGradient id="linear-gradient-6" x1="116.78" y1="61.78" x2="108.07" y2="63.96" gradientUnits="userSpaceOnUse"><stop offset="0" stop-color="#f1f2f2"/><stop offset="0.05" stop-color="#e7e8e8"/><stop offset="0.26" stop-color="#bcbec0"/><stop offset="0.28" stop-color="#c5c6c8"/><stop offset="0.34" stop-color="#d8dadb"/><stop offset="0.41" stop-color="#e6e8e8"/><stop offset="0.5" stop-color="#eff0f0"/><stop offset="0.65" stop-color="#f1f2f2"/><stop offset="0.9" stop-color="#fff"/></linearGradient><linearGradient id="linear-gradient-7" x1="1036.55" y1="439.55" x2="1127.59" y2="550.47" gradientTransform="translate(-337.97 -152.77) scale(0.44)" gradientUnits="userSpaceOnUse"><stop offset="0" stop-color="#fff"/><stop offset="0.07" stop-color="#e0e1e2"/><stop offset="0.16" stop-color="#fff"/><stop offset="0.2" stop-color="#fff"/><stop offset="0.27" stop-color="#e3e4e5"/><stop offset="0.33" stop-color="#d1d3d4"/><stop offset="0.36" stop-color="#e6e7e7"/><stop offset="0.39" stop-color="#f4f4f5"/><stop offset="0.43" stop-color="#fcfdfd"/><stop offset="0.5" stop-color="#fff"/><stop offset="0.89" stop-color="#fff"/><stop offset="0.98" stop-color="#babcbe"/></linearGradient><linearGradient id="linear-gradient-8" x1="106.22" y1="49.32" x2="147" y2="88.05" gradientUnits="userSpaceOnUse"><stop offset="0" stop-color="#dcddde"/><stop offset="0.1" stop-color="#b5b6b7"/><stop offset="0.23" stop-color="#8d8e8f"/><stop offset="0.34" stop-color="#707173"/><stop offset="0.44" stop-color="#5e5f61"/><stop offset="0.51" stop-color="#58595b"/><stop offset="0.58" stop-color="#5d5e60"/><stop offset="0.67" stop-color="#6b6c6e"/><stop offset="0.77" stop-color="#838486"/><stop offset="0.87" stop-color="#a5a6a7"/><stop offset="0.97" stop-color="#cfd0d1"/><stop offset="1" stop-color="#dcddde"/></linearGradient><linearGradient id="linear-gradient-9" x1="125.88" y1="68.06" x2="109.98" y2="91.82" gradientUnits="userSpaceOnUse"><stop offset="0" stop-color="#c7c8ca"/><stop offset="0.1" stop-color="#fff"/><stop offset="0.35" stop-color="#ededee"/><stop offset="0.42" stop-color="#f6f6f6"/><stop offset="0.54" stop-color="#fff"/><stop offset="0.56" stop-color="#d8d8d8"/><stop offset="0.6" stop-color="#a3a2a3"/><stop offset="0.64" stop-color="#787879"/><stop offset="0.67" stop-color="#5a595b"/><stop offset="0.7" stop-color="#484749"/><stop offset="0.71" stop-color="#414042"/><stop offset="0.73" stop-color="#6d6c6e"/><stop offset="0.75" stop-color="#99999a"/><stop offset="0.77" stop-color="#bebebe"/><stop offset="0.79" stop-color="#dadadb"/><stop offset="0.8" stop-color="#efefef"/><stop offset="0.82" stop-color="#fbfbfb"/><stop offset="0.84" stop-color="#fff"/><stop offset="0.85" stop-color="#fafafa"/><stop offset="0.86" stop-color="#ededed"/><stop offset="0.87" stop-color="#d6d7d7"/><stop offset="0.89" stop-color="#b7b7b8"/><stop offset="0.9" stop-color="#8e8f90"/><stop offset="0.91" stop-color="#5d5e60"/><stop offset="0.91" stop-color="#5a5b5d"/><stop offset="0.95" stop-color="#5a5b5d"/><stop offset="1" stop-color="#8a8c8e"/></linearGradient><linearGradient id="linear-gradient-10" x1="124.1" y1="80.44" x2="128.3" y2="82.91" gradientUnits="userSpaceOnUse"><stop offset="0.2" stop-color="#fff"/><stop offset="0.32" stop-color="#fdfdfd"/><stop offset="0.4" stop-color="#f4f5f5"/><stop offset="0.46" stop-color="#e6e7e8"/><stop offset="0.51" stop-color="#d2d4d5"/><stop offset="0.52" stop-color="#cdcfd0"/><stop offset="0.84" stop-color="#58595b"/><stop offset="0.94" stop-color="#4b4a4c"/><stop offset="1" stop-color="#414042"/></linearGradient><linearGradient id="linear-gradient-11" x1="126.45" y1="69.08" x2="130.87" y2="63.79" gradientUnits="userSpaceOnUse"><stop offset="0.02" stop-color="#fff"/><stop offset="0.18" stop-color="#fff"/><stop offset="0.21" stop-color="#fff"/><stop offset="0.31" stop-color="#f7f7f8"/><stop offset="0.46" stop-color="#e2e3e4"/><stop offset="0.5" stop-color="#dcddde"/><stop offset="0.54" stop-color="#d6d7d8"/><stop offset="0.81" stop-color="#adafb1"/><stop offset="0.95" stop-color="#9d9fa2"/><stop offset="1" stop-color="#97999c"/></linearGradient><linearGradient id="linear-gradient-12" x1="136.2" y1="39.6" x2="141.94" y2="45.48" gradientUnits="userSpaceOnUse"><stop offset="0" stop-color="#231f20"/><stop offset="0.05" stop-color="#252122"/><stop offset="0.07" stop-color="#2d2a2b"/><stop offset="0.09" stop-color="#3b3838"/><stop offset="0.11" stop-color="#4e4b4c"/><stop offset="0.13" stop-color="#686566"/><stop offset="0.14" stop-color="#868585"/><stop offset="0.16" stop-color="#ababab"/><stop offset="0.17" stop-color="#d5d5d5"/><stop offset="0.18" stop-color="#f1f2f2"/><stop offset="0.21" stop-color="#d7d8d9"/><stop offset="0.27" stop-color="#adaeaf"/><stop offset="0.33" stop-color="#8b8b8c"/><stop offset="0.39" stop-color="#707071"/><stop offset="0.45" stop-color="#5c5c5e"/><stop offset="0.51" stop-color="#515153"/><stop offset="0.58" stop-color="#4d4d4f"/><stop offset="0.7" stop-color="#474648"/><stop offset="0.87" stop-color="#353334"/><stop offset="1" stop-color="#231f20"/></linearGradient><linearGradient id="linear-gradient-13" x1="136.88" y1="64.03" x2="143.42" y2="59.73" xlink:href="#linear-gradient-12"/><linearGradient id="linear-gradient-14" x1="142.13" y1="43.15" x2="150.72" y2="43.15" gradientUnits="userSpaceOnUse"><stop offset="0" stop-color="#6d6e71"/><stop offset="0.29" stop-color="#d1d3d4"/><stop offset="0.33" stop-color="#b6b8ba"/><stop offset="0.38" stop-color="#96989a"/><stop offset="0.44" stop-color="#808183"/><stop offset="0.49" stop-color="#727376"/><stop offset="0.53" stop-color="#6d6e71"/><stop offset="0.76" stop-color="#414042"/><stop offset="1" stop-color="#231f20"/></linearGradient><linearGradient id="linear-gradient-15" x1="107.08" y1="87.81" x2="126.88" y2="87.81" gradientUnits="userSpaceOnUse"><stop offset="0" stop-color="#231f20"/><stop offset="0.05" stop-color="#252122"/><stop offset="0.08" stop-color="#2d292b"/><stop offset="0.11" stop-color="#3a3739"/><stop offset="0.13" stop-color="#4d4b4c"/><stop offset="0.15" stop-color="#656466"/><stop offset="0.17" stop-color="#828385"/><stop offset="0.18" stop-color="#9fa1a4"/><stop offset="0.24" stop-color="#898a8d"/><stop offset="0.32" stop-color="#6e6f72"/><stop offset="0.4" stop-color="#5c5c5e"/><stop offset="0.49" stop-color="#515153"/><stop offset="0.58" stop-color="#4d4d4f"/><stop offset="0.7" stop-color="#474648"/><stop offset="0.87" stop-color="#353334"/><stop offset="1" stop-color="#231f20"/></linearGradient><linearGradient id="linear-gradient-16" x1="132.28" y1="80.21" x2="141.13" y2="80.21" xlink:href="#linear-gradient-15"/><linearGradient id="linear-gradient-17" x1="138.21" y1="81.4" x2="154.48" y2="81.4" xlink:href="#linear-gradient-15"/><linearGradient id="linear-gradient-18" x1="106.21" y1="65.51" x2="123.17" y2="65.51" gradientUnits="userSpaceOnUse"><stop offset="0" stop-color="#808285"/><stop offset="0.06" stop-color="#828487"/><stop offset="0.1" stop-color="#8b8d8f"/><stop offset="0.12" stop-color="#999b9d"/><stop offset="0.15" stop-color="#acaeb0"/><stop offset="0.17" stop-color="#c6c8c9"/><stop offset="0.18" stop-color="#d1d3d4"/><stop offset="0.27" stop-color="#aaaaab"/><stop offset="0.39" stop-color="#818081"/><stop offset="0.51" stop-color="#5f5d5e"/><stop offset="0.63" stop-color="#454243"/><stop offset="0.75" stop-color="#322e2f"/><stop offset="0.87" stop-color="#272324"/><stop offset="1" stop-color="#231f20"/></linearGradient><linearGradient id="linear-gradient-19" x1="106.58" y1="55.19" x2="112.62" y2="55.19" gradientUnits="userSpaceOnUse"><stop offset="0" stop-color="#4d4d4f"/><stop offset="0.05" stop-color="#4f4f51"/><stop offset="0.08" stop-color="#57585a"/><stop offset="0.11" stop-color="#656667"/><stop offset="0.13" stop-color="#79797b"/><stop offset="0.15" stop-color="#929395"/><stop offset="0.16" stop-color="#b1b2b4"/><stop offset="0.18" stop-color="#d1d3d4"/><stop offset="0.27" stop-color="#aaaaab"/><stop offset="0.39" stop-color="#818081"/><stop offset="0.51" stop-color="#5f5d5e"/><stop offset="0.63" stop-color="#454243"/><stop offset="0.75" stop-color="#322e2f"/><stop offset="0.87" stop-color="#272324"/><stop offset="1" stop-color="#231f20"/></linearGradient><linearGradient id="linear-gradient-20" x1="101.43" y1="63.99" x2="105.4" y2="63.99" gradientUnits="userSpaceOnUse"><stop offset="0" stop-color="#808285"/><stop offset="0.07" stop-color="#828487"/><stop offset="0.11" stop-color="#8b8d8f"/><stop offset="0.14" stop-color="#999b9d"/><stop offset="0.16" stop-color="#acaeb1"/><stop offset="0.18" stop-color="#bcbec0"/><stop offset="0.24" stop-color="#acaeb0"/><stop offset="0.39" stop-color="#8a8b8d"/><stop offset="0.54" stop-color="#6f7072"/><stop offset="0.69" stop-color="#5c5c5e"/><stop offset="0.84" stop-color="#515153"/><stop offset="1" stop-color="#4d4d4f"/></linearGradient><linearGradient id="linear-gradient-21" x1="122.32" y1="39.37" x2="122.75" y2="40.33" gradientUnits="userSpaceOnUse"><stop offset="0" stop-color="#fff"/><stop offset="0.12" stop-color="#ebebec"/><stop offset="0.91" stop-color="#636466"/></linearGradient><linearGradient id="linear-gradient-22" x1="116.86" y1="49.25" x2="132.9" y2="49.25" gradientUnits="userSpaceOnUse"><stop offset="0.69" stop-color="#fff"/><stop offset="0.72" stop-color="#fafafa"/><stop offset="0.76" stop-color="#ebeaea"/><stop offset="0.8" stop-color="#d2d1d1"/><stop offset="0.85" stop-color="#afadae"/><stop offset="0.9" stop-color="#827f80"/><stop offset="0.95" stop-color="#4c4949"/><stop offset="0.98" stop-color="#231f20"/></linearGradient><linearGradient id="linear-gradient-23" x1="115.8" y1="88.97" x2="121.75" y2="67.94" gradientUnits="userSpaceOnUse"><stop offset="0" stop-color="#e6e7e8"/><stop offset="0.07" stop-color="#636466"/><stop offset="0.24" stop-color="#838487"/><stop offset="0.35" stop-color="#939598"/><stop offset="0.47" stop-color="#a5a7a9"/><stop offset="0.6" stop-color="#b6b8ba"/><stop offset="0.68" stop-color="#a6a8aa"/><stop offset="0.86" stop-color="#848588"/><stop offset="0.96" stop-color="#77787b"/><stop offset="1" stop-color="#b1b3b6"/></linearGradient></defs><title>Logo_Peugeot</title><g class="cls-1"><g id="Layer_1" data-name="Layer 1"><path class="cls-2" d="M154.83,88.94c-1.05-3.14-5.3-11-8.64-15.47-0.72-1-.45-1.46-0.07-1.78a27.82,27.82,0,0,0,3.1-3.07c1.49-1.7,1.84-3.62.79-6.4s-4.5-9.29-5.22-11.46c-0.83-2.5-.92-3.61-0.41-5,0.59-1.6,1.45-1.67,2.1-1.66a0.69,0.69,0,0,1,.61.54,9.12,9.12,0,0,0,.74,3.4,10.54,10.54,0,0,0,4.82,5.19c0.62,0.27.73-.21,0.68-0.44l-1.67-6.54c-0.72-2.84-1.08-3.45-1.73-4.05A5.62,5.62,0,0,0,146,40.8c-2.93.11-4.23,2.95-4.39,3.21s-0.19.4-.49,0.19c-0.84-.59-3.29-2.63-3.51-3.91a1.17,1.17,0,0,0-1-1.16,43.73,43.73,0,0,0-8.31-2.66,4.77,4.77,0,0,0-2.51-.05,16.93,16.93,0,0,0-5.3,1.82,2.65,2.65,0,0,0-1.22,1.06,1.23,1.23,0,0,1-.63.51,27.85,27.85,0,0,0-3.35,1.37,0.73,0.73,0,0,0-.46,1,14.64,14.64,0,0,0,2.12,3.2,3.68,3.68,0,0,0,1.3.51c0.19,0,.32.1,0.39,0a1.2,1.2,0,0,1,.48-0.64,5.34,5.34,0,0,1,2.15-.71,1.29,1.29,0,0,1,.9.11,3,3,0,0,1,.89,1.23c0.17,0.54.06,0.74-.24,0.86a9.46,9.46,0,0,1-2.25.41,1.71,1.71,0,0,1-1.41-.27,0.18,0.18,0,0,0-.3,0,2.12,2.12,0,0,1-.84.6,0.47,0.47,0,0,0-.14.74c0.66,1.15,1.54,2.44,2.35,2.68a1.73,1.73,0,0,0,1.72-.53,1.17,1.17,0,0,1,1.25-.34,0.92,0.92,0,0,1,.49.81,11.77,11.77,0,0,1-1.56,2.23,0.56,0.56,0,0,1-.78.23c-0.55-.26-8.88-4.59-10-5a9,9,0,0,0-3.21-.63,15.86,15.86,0,0,0-3.06.2,2.8,2.8,0,0,0-1.47.89A4.69,4.69,0,0,0,102,51.09a4,4,0,0,0,.61,1.7,0.48,0.48,0,0,0,.5.2,5.08,5.08,0,0,1,2.14-.29,1.26,1.26,0,0,1,1,1.39,0.36,0.36,0,0,0,.37.3,3.32,3.32,0,0,1,1.55.31,14.32,14.32,0,0,1,2.6,1.86C111,56.77,111,57,110.6,57a36.5,36.5,0,0,0-6.41,1.23,4.77,4.77,0,0,0-2.58,1.49,11.26,11.26,0,0,0-1.23,3.06,3.34,3.34,0,0,0,1.09,2.34,0.42,0.42,0,0,0,.62.11,6.92,6.92,0,0,1,2.79-1.07A1.31,1.31,0,0,1,106,65c0.17,0.23.32,0.07,0.93-.09,1.08-.29,7.13-0.18,9.26-0.08a8,8,0,0,1,3.33.74,20.62,20.62,0,0,1,2.79,2.24s-2.39,4-3.67,6.38c-1.19,2.19-2.06,3.84-2.49,4.8a7,7,0,0,0-.65,3.09c0.11,1.43.14,2.16,0.13,2.8s-0.55.63-1.3,0.82c-1,.26-3.1.45-4.78,0.87-1.52.38-2.09,0.74-2.36,1.91a31.87,31.87,0,0,0-.56,4.25c0,0.43,0,.63.51,0.52,0.31-.06,1.21-0.19,2.35-0.27,1.41-.11,2.94-0.09,4.12-0.09,2.17,0,8.59.36,9,.41s0.66,0,.62-0.4-0.14-2.12-.17-3.08a3.49,3.49,0,0,1,.7-2.88c0.87-.94,7.41-8.24,7.77-8.61s0.53-.66,1-0.21,5.88,4.33,7,5.13a5.43,5.43,0,0,0,3.36,1.08c0.89,0,1.14,1.57.38,1.71s-2,.39-2.78.58a2.41,2.41,0,0,0-2,1.57,28.9,28.9,0,0,0-.7,4.6c0,0.22,0,.54.33,0.47a32.91,32.91,0,0,1,6.73-.33c3.06,0.09,6,.35,6.45.37a0.59,0.59,0,0,0,.72-0.39,15.17,15.17,0,0,1,2.54-2.76A0.82,0.82,0,0,0,154.83,88.94ZM143.07,67.39a1.51,1.51,0,0,1-1.66-.33C141,66.71,137.95,63,137,61.85a1.44,1.44,0,0,1,.63-2.44c1.24-.45,3.45-1.16,4.06-1.48a1.52,1.52,0,0,0,1-1.29c0-.63.05-1.34,0.06-1.58a0.25,0.25,0,0,1,.47-0.15c0.11,0.2.66,1.28,1.34,2.53,1,1.88,2.29,4.22,2.7,5.23a2.2,2.2,0,0,1-.4,2.44A11.18,11.18,0,0,1,143.07,67.39Z"/><path class="cls-3" d="M146.26,41.38h0c-2.41,0-4.85,2.78-4.38,6.94a15,15,0,0,0,1.43,5.36c0.38,0.81,4.49,8.64,4.68,9.47a2.52,2.52,0,0,1-.88,2.76,13.13,13.13,0,0,1-3.79,2.33,2.29,2.29,0,0,1-.73.14c-0.26,0-.89-0.09-2.09-1.57l5.31,7.09a3,3,0,0,1-.91-2.19c0.12-.59,1.09-1.24,2.2-2.11A8.46,8.46,0,0,0,150,66.14a3.58,3.58,0,0,0,.24-1.32,12.09,12.09,0,0,0-1.51-4.75c-1.06-2.25-4.07-7.17-5-10.61a9,9,0,0,1-.32-2.28c0-2,.83-3.19,1.85-3.61a3.43,3.43,0,0,1,1.29-.26,2.46,2.46,0,0,1,1.11.24,0.83,0.83,0,0,1,.33.77v0.06c0,0.06,0,.21,0,0.42a9.15,9.15,0,0,0,1,4.28,9,9,0,0,0,3.95,3.72c0.07,0-1.83-7-2.16-8.31C150.39,43,149.3,41.41,146.26,41.38Z"/><path class="cls-4" d="M113.16,57c0.46,0.46-.34.44-2.79,0.65A27.58,27.58,0,0,0,104,58.82a2.74,2.74,0,0,0-1.93,1.5,15.28,15.28,0,0,0-.91,2.42,1,1,0,0,0,.14.78c0.09,0.15.32-4.53,6.35-4.83,5.33-.27,6.65-0.83,5.61-1.85Z"/><path class="cls-5" d="M143.71,47.37a9.7,9.7,0,0,1,.33-1.8,2.34,2.34,0,0,1,2.22-1.88,1,1,0,0,1,.86.32,0.87,0.87,0,0,1,.27.55,8.73,8.73,0,0,0,.72,3.29l0.13,0.32a9.68,9.68,0,0,1-.64-3.49c0-.22,0-0.48,0-0.48a0.9,0.9,0,0,0-1.1-.68,3,3,0,0,0-1.16.24c-0.84.34-1.61,1.39-1.65,3.19v0.41Z"/><path class="cls-6" d="M113.37,57.16c0.18,0.49-.54.38-3,0.59a27.72,27.72,0,0,0-6.32,1.19,2.74,2.74,0,0,0-1.93,1.5,15.42,15.42,0,0,0-.91,2.42,1,1,0,0,0,.2.78c0.26,0.4.42,0.49,0.79,0.28a6.83,6.83,0,0,1,2.51-.95,1.19,1.19,0,0,1,1.26.88c0.07,0.26.42,0.13,0.48,0.11a8.87,8.87,0,0,1,1.94-.28c1.48-.11,7.26-0.06,9.38,0,1.91,0,9.42,5.94,9.53,6l0.38-.76c-2.55-2.11-12-9.63-14.33-11.87v0.14Z"/><path class="cls-7" d="M135,61.82c1.14,1.37,4.55,5.51,7.46,9.24a73,73,0,0,1,10.3,17.1c0.29,0.67.07,0.74-.4,1.12-0.9.73-.71,1-1.39,2.19a0.56,0.56,0,0,1-.46.33c-0.62,0-5.46-.46-8.63-0.35a11.71,11.71,0,0,0-2.79.3c-0.34.08-.45,0-0.44-0.39a20.46,20.46,0,0,1,.63-2.89,1.74,1.74,0,0,1,1.33-1.19c0.63-.17,2.42-0.51,3.15-0.69a1.1,1.1,0,0,0,.69-1.39,1.6,1.6,0,0,0-1-1.31,6.63,6.63,0,0,1-1.76-.51c-0.69-.31-10.56-8.26-11.46-9-0.23-.19-0.41-0.33-0.48-0.24a0.53,0.53,0,0,0,.2.41c0.17,0.18,1.66,1.71,2,2a0.26,0.26,0,0,1,0,.46c-0.18.16-4.85,4.77-6.78,6.77s-3.33,3.18-3.31,4.78,0.09,2.86.09,3.13-0.25.24-.46,0.22c-0.6-.05-5.24-0.51-7.84-0.57a22.31,22.31,0,0,0-5.71.5c-0.29.07-.38-0.1-0.36-0.35a18.35,18.35,0,0,1,.67-3.13,1.76,1.76,0,0,1,1.42-1.19c0.85-.21,4.18-0.81,5.68-1a0.91,0.91,0,0,0,1-1.09c0-.7-0.09-2.2-0.13-2.94a5.41,5.41,0,0,1,.48-2.23,75.85,75.85,0,0,1,6.61-12.1,0.77,0.77,0,0,1,.86-0.4,19,19,0,0,1,2,1.33c0.27,0.14.62,0,.46-0.15-0.88-.88-3.55-2.5-5.17-3.8-3.22-2.57-6.57-6.29-9.27-8.78a10,10,0,0,0-4-2.47c-0.39-.09-0.77-0.09-1.1-0.14a0.23,0.23,0,0,1-.19-0.24,1.27,1.27,0,0,0-.33-0.9,1.76,1.76,0,0,0-1.2-.4,8.21,8.21,0,0,0-1.95.24A0.38,0.38,0,0,1,103,52a1.87,1.87,0,0,1-.28-0.73,0.94,0.94,0,0,1,.16-0.62A8,8,0,0,1,104.5,49a1.85,1.85,0,0,1,1.29-.54,12.27,12.27,0,0,1,4.17.12,13.47,13.47,0,0,1,3.1,1.24c1.09,0.54,7.44,3.79,8.25,4.18Z"/><path class="cls-8" d="M124.48,50.27a2.5,2.5,0,0,1-.69,1.79c-0.3.48-.92,1.19-1.24,1.59a1.29,1.29,0,0,1-1.18.36l5.76,2.91c0.83,0.42,2.14,0,3-1.63,0.21-.39,1.52-3.17,1.85-4a3.49,3.49,0,0,0,0-3.32,38.74,38.74,0,0,0-4-5.6,2.8,2.8,0,0,0-2.29-1,15.07,15.07,0,0,0-4.67.64,42.11,42.11,0,0,0-4.59,1.61,0.1,0.1,0,0,0,0,.14c0,0.05.29,0.51,0.29,0.51a1.23,1.23,0,0,0,.51.52,3.3,3.3,0,0,0,.85.32A0.15,0.15,0,0,0,118.3,45a2.67,2.67,0,0,1,1.77-1.11,5.81,5.81,0,0,1,1.44-.21,2,2,0,0,1,1.21.48,4.16,4.16,0,0,1,1,1.7,0.92,0.92,0,0,1-.36,1,8.53,8.53,0,0,1-2.17.52,3.35,3.35,0,0,1-1.83-.2,0.14,0.14,0,0,0-.18,0,3.25,3.25,0,0,1-.56.42,0.18,0.18,0,0,0,0,.26,9,9,0,0,0,1.46,2c0.52,0.39.8,0.22,1.42-.13a3.4,3.4,0,0,1,1.7-.75A1.44,1.44,0,0,1,124.48,50.27Z"/><path class="cls-9" d="M123.31,47.1a8.77,8.77,0,0,1-2.13.48,3.46,3.46,0,0,1-1.79-.19,0.14,0.14,0,0,0-.17,0,3.21,3.21,0,0,1-.55.39,0.16,0.16,0,0,0,0,.24A7.75,7.75,0,0,0,120,49.84c0.53,0.38.81,0.21,1.45-.13a3.52,3.52,0,0,1,1.73-.73Z"/><path class="cls-10" d="M121,42.22a41.31,41.31,0,0,0-4.36,1.46,0.17,0.17,0,0,0,0,.19s0.27,0.46.27,0.46a1.13,1.13,0,0,0,.49.48,3.5,3.5,0,0,0,.75.31A0.15,0.15,0,0,0,118.3,45a2.67,2.67,0,0,1,1.77-1.11,5.81,5.81,0,0,1,1.44-.21Z"/><path class="cls-11" d="M124.5,50.38a2.63,2.63,0,0,1-.69,1.85c-0.3.48-.92,1.19-1.24,1.59a0.9,0.9,0,0,1-1,.29l5.56,2.81c0.83,0.42,2.09.13,3-1.53,0.21-.39,1.52-3.17,1.85-4Z"/><path class="cls-12" d="M107.28,63.39c-0.16-.06-0.16-0.25.05-0.48a5.27,5.27,0,0,1,1.66-1c0.59-.13,2.67-0.33,3.56-0.38,0.25,0,3.46-.3,3.76-0.29s1,1.16,1.89,2.1c-0.1,0-2.9-.05-5.28,0s-4.23.07-5,.13A2.11,2.11,0,0,1,107.28,63.39Z"/><path class="cls-13" d="M107.26,63.43l0,0,0,0a0.21,0.21,0,0,1-.14-0.2h0a0.54,0.54,0,0,1,.18-0.35h0A5.26,5.26,0,0,1,109,61.82h0c0.6-.14,2.68-0.33,3.56-0.38h0c0.24,0,3.32-.29,3.74-0.29h0a0.61,0.61,0,0,1,.33.21h0c0.13,0.13.27,0.3,0.44,0.5h0c0.33,0.41.73,0.93,1.16,1.4h0l0.06,0.07h-0.14c-0.37,0-2.75,0-4.91,0h-0.32c-2.25,0-4.23.07-5,.13h0c-0.16,0-.34,0-0.5,0h0a0.61,0.61,0,0,1-.21,0h0Zm0.21-.06c0.14,0,.33,0,0.49,0h0c0.73-.06,2.71-0.12,5-0.13h0.32c2.07,0,4.36,0,4.86,0h0c-0.62-.69-1.17-1.47-1.53-1.82h0a0.57,0.57,0,0,0-.27-0.19h0c-0.41,0-3.49.27-3.73,0.29h0c-0.88.05-3,.24-3.55,0.38h0a5.24,5.24,0,0,0-1.63,1h0a0.47,0.47,0,0,0-.16.29h0a0.12,0.12,0,0,0,.09.12h0a0.51,0.51,0,0,0,.18,0h0Z"/><path class="cls-14" d="M153.58,88.44a80.94,80.94,0,0,0-7.48-13.28c-3.69-5.43-9.95-12.79-10.81-14s-1.18-2.54.59-3.1c1.15-.37,3.92-0.94,5.06-1.26a1.36,1.36,0,0,0,1.28-1.51,43.23,43.23,0,0,0-.71-8.07,2.25,2.25,0,0,0-.93-1.33,23.4,23.4,0,0,1-2.76-2.56,6.46,6.46,0,0,1-1.56-2.94A0.7,0.7,0,0,0,136,40a0.91,0.91,0,0,0-.25-0.19c-1.66-1-7.52-2.62-8.71-2.73A13,13,0,0,0,120.7,39c-0.78.47-.81,1-1.35,1.36s-1.78.6-3.09,1.18c-0.72.32-.72,0.37-0.55,0.78a2.34,2.34,0,0,0,.78,1,2.27,2.27,0,0,0,.81-0.23,37.73,37.73,0,0,1,5-1.59c2.28-.49,4.73-0.53,5.6.39a37.63,37.63,0,0,1,4.35,5.9,3.53,3.53,0,0,1,.16,3.38,38.36,38.36,0,0,1-2.5,5.29c-0.47.69-1,1.07-2.42,0.51s-6.9-3.39-8.08-4l-6.69-3.37a10.57,10.57,0,0,0-7.35-1.13,1.12,1.12,0,0,0-.66,1c0,0.34,1,.1,1.83.16a17.39,17.39,0,0,1,4.23.82c1.38,0.56,8.28,4.27,10,5.21,13.27,7.22,19,11.87,29.21,29.1,0.46,0.77.68,1.72,0,1.93-1,.31-5.43,1.14-6.75,1.57-1.11.37-1.26,0.45-1.42,1a8.67,8.67,0,0,0-.4,2.12c0,0.1-.06.24,0.17,0.24,1.23,0,5.64,0,9,.33,0.41,0,.43,0,0.69-0.36a13.24,13.24,0,0,1,2.25-2.37A0.69,0.69,0,0,0,153.58,88.44Z"/><path class="cls-15" d="M150.46,85.88c-0.07-.7-0.71-1.74-1.85-3.53s-2.59-4.26-4.51-7a54.88,54.88,0,0,0-10.94-11.9,75.24,75.24,0,0,0-8.68-5.78c-2.37-1.39-12.38-6.87-13.93-7.35a15,15,0,0,0-5.4-.71c-0.57,0-.37-0.47-0.29-0.65-0.06.13-.4,0.77,0.16,0.77a20,20,0,0,1,2,0,17.05,17.05,0,0,1,3.78.86c1.39,0.54,7.93,4.44,9.62,5.38A90.36,90.36,0,0,1,133,64.51c5.55,4.47,10.35,9.66,16.35,20.18a2.12,2.12,0,0,1,.36,1.1,0.85,0.85,0,0,1-.66.85c-1,.31-5.28,1.27-6.53,1.7-1.07.38-1.26,0.61-1.42,1.11a6.13,6.13,0,0,1-.45,1.47,1.58,1.58,0,0,1-1.22.33c-0.32,0-.48,0-0.45-0.34s0.24-1.32.36-1.87a1.8,1.8,0,0,1,.86-1.28,20.25,20.25,0,0,1,3.25-.84,1.15,1.15,0,0,0,1-1.45c0,0.79-.27,1-1.27,1.2a14.34,14.34,0,0,0-3.26.82,2.09,2.09,0,0,0-.85,1.29,14.22,14.22,0,0,0-.53,2.78c0,0.31.16,0.35,0.5,0.31s1.19-.16,2.47-0.21c0.38,0,.35-0.46.35-1a4,4,0,0,1,.1-1,1,1,0,0,1,.62-0.61c0.71-.22,4.65-1.29,6.65-1.88C150.17,87,150.54,86.68,150.46,85.88Z"/><path class="cls-16" d="M124.15,67.41a5.81,5.81,0,0,1,1.16.73l0.56,0.41A100.13,100.13,0,0,0,118,80,4.83,4.83,0,0,0,117.4,83c0,1.11.15,2.48,0.08,3.12a1.26,1.26,0,0,1-1.13,1.1c-0.65.18-4.46,0.79-5.31,1a1.51,1.51,0,0,0-1.18,1.33c-0.14.61-.19,1-0.26,1.24s0,0.45-.27.46-0.83.07-1.1,0.11-0.31,0-.31-0.32a19.37,19.37,0,0,1,.48-2.33,1.71,1.71,0,0,1,1.44-1.41c1-.23,4.84-0.88,5.57-1a1.06,1.06,0,0,0,1-1.35c0-.86-0.17-2.07-0.19-2.81a5,5,0,0,1,.27-2c0.27-.72,1.65-3.72,2.8-5.83a75.29,75.29,0,0,1,3.94-6.5A0.76,0.76,0,0,1,124.15,67.41Z"/><path class="cls-17" d="M121.91,88.73a3.1,3.1,0,0,1,.66-1.95,27.35,27.35,0,0,1,2.61-2.86c1.95-2,6.7-6.67,6.87-6.84s0.24-.26,0-0.51c-0.47-.45-0.72-0.74-1.46-1.49a2.4,2.4,0,0,1-.75-0.89s-5.31,5.95-7,10.36a7.79,7.79,0,0,0-.92,3.25A3.93,3.93,0,0,0,121.91,88.73Z"/><path class="cls-18" d="M105.08,49.77a16.06,16.06,0,0,1,2.07.05,16.22,16.22,0,0,1,3.78.9c0.51,0.21,1.71.86,3.11,1.65,2.43,1.37,5.46,3.16,6.53,3.76a94,94,0,0,1,9.66,6.23c1,0.75,2,1.53,3,2.31,5.57,4.5,10.14,9.48,16.25,20.15a1.84,1.84,0,0,1,.28,1.1,0.89,0.89,0,0,1-.75.74Z"/><path class="cls-19" d="M141.45,44.76h0a0.85,0.85,0,0,1-.49-0.18c-0.88-.66-3.35-2.57-3.7-4.2-0.22-.76.06-0.41-0.73-0.81l-0.65-.25,0.21,0.12a1.44,1.44,0,0,1,.31.23,1.15,1.15,0,0,1,.37.61A6,6,0,0,0,138.2,43,22.79,22.79,0,0,0,141,45.49a3.09,3.09,0,0,1,.61.5,9.16,9.16,0,0,1,.52-1.74,2.41,2.41,0,0,1-.15.24A0.65,0.65,0,0,1,141.45,44.76Z"/><path class="cls-20" d="M136.06,58.49c-0.82.3-.93,0.56-1,1h0a2.76,2.76,0,0,0,.54,1.48c0.43,0.61,2.5,3,4.8,5.86a8.43,8.43,0,0,0,.6.67c-0.08-.11-3.34-4.23-4.34-5.37a2.15,2.15,0,0,1-.61-1.37A2,2,0,0,1,137.47,59c1.24-.45,3.49-1.18,4-1.46a1.09,1.09,0,0,0,.72-0.75,2.78,2.78,0,0,1-1,.46C140,57.56,137.17,58.14,136.06,58.49Z"/><path class="cls-21" d="M142.13,45a4.48,4.48,0,0,1,4.12-3.41c2.87,0,4.06,1.08,4.47,2.7-0.51-2.29-2.52-3-4.47-3A4.6,4.6,0,0,0,142.13,45Z"/><path class="cls-22" d="M123.44,86.6l3.44-3.81-1.35,1.37c-2.22,2.27-3.23,3-3.19,4.39,0,0.83.09,2.89,0.1,3.19a0.53,0.53,0,0,1-.33.59,1.49,1.49,0,0,1-.62.09c-0.6,0-6.46-.57-8.52-0.57a21.55,21.55,0,0,0-4.88.49,0.85,0.85,0,0,1-.8-0.25,0.79,0.79,0,0,1-.13-0.4c0,0.4-.08.87-0.08,1.07a23.68,23.68,0,0,1,2.37-.28c1.44-.11,3.07-0.09,4.16-0.09s9.15,0.42,9.18.42c-0.05-.62-0.13-2.09-0.16-3,0-.24,0-0.24,0-0.89A3.19,3.19,0,0,1,123.44,86.6Z"/><path class="cls-23" d="M139.81,82.85a5.22,5.22,0,0,0,1.32.71c-0.37-.26-0.91-0.67-1.63-1.22-1-.8-2.37-1.85-3.7-2.91l-3.22-2.57a0.71,0.71,0,0,1-.31.57,1.17,1.17,0,0,1,.6.32C133.29,78.14,138.73,82.07,139.81,82.85Z"/><path class="cls-24" d="M154.22,89.78c0.19-.15.26-0.14,0.26-0.28a2.07,2.07,0,0,0-.14-0.54,77.23,77.23,0,0,0-8.53-15.2,2.53,2.53,0,0,1-.52-1.35,1.34,1.34,0,0,1,.53-1.07c0.22-.19.78-0.66,1.5-1.37a7.73,7.73,0,0,0-2,1.81,1.54,1.54,0,0,0-.13.61,2.54,2.54,0,0,0,.54,1.43l0.75,1.08a78.34,78.34,0,0,1,7.4,13.44,1.14,1.14,0,0,1,0,1.18s-2,2-2.2,2.39a1.84,1.84,0,0,1-.31.39,1.23,1.23,0,0,1-.81.17c-2.9-.27-6.06-0.39-7.64-0.39-2.05,0-3.25.2-3.94,0.22a1.06,1.06,0,0,1-.67-0.14l0,0c0,0.29,0,.51-0.05.6a28.74,28.74,0,0,1,4.79-.32l1.82,0c3.07,0.09,6.63.38,6.64,0.38A28,28,0,0,1,154.22,89.78Z"/><path class="cls-25" d="M123.17,67.07c-0.92-.65-1.9-1.31-2.78-1.85a8.19,8.19,0,0,0-2.6-1.22c-3.55-.06-3.55-0.06-5.63-0.06-1.63,0-3.17.06-3.78,0.11a11.75,11.75,0,0,0-2,.27,0.66,0.66,0,0,1-.2,0l0.1,0.18,0.17-.06a21.38,21.38,0,0,1,4.47-.32c2,0,4.13,0,5.25.07a8.41,8.41,0,0,1,3.54.8C120.79,65.59,123.06,67.17,123.17,67.07Z"/><path class="cls-26" d="M112.47,56.78a13.58,13.58,0,0,0-4.33-2.89,7.3,7.3,0,0,0-1.19-.13,0.57,0.57,0,0,1-.36-0.42,0.77,0.77,0,0,0,.21.59,3.78,3.78,0,0,1,1.65.23A24.77,24.77,0,0,1,112,56.67C112.42,57.17,112.86,57.12,112.47,56.78Z"/><path class="cls-27" d="M104.82,63.57a1.19,1.19,0,0,1,.58.1,0.66,0.66,0,0,0-.72-0.33,8.49,8.49,0,0,0-2.48,1c-0.37.21-.53,0.21-0.77,0a0.44,0.44,0,0,0,.45.36A11.16,11.16,0,0,1,104.82,63.57Z"/><path class="cls-28" d="M123.48,39.16c0.29,0,.54-0.11.57,0.13a0.87,0.87,0,0,1,0,.38,0.3,0.3,0,0,1-.21.18c-0.3.1-2,.73-2.33,0.86a0.27,0.27,0,0,1-.4-0.15,1.05,1.05,0,0,1,.1-0.64,0.5,0.5,0,0,1,.33-0.26C121.65,39.61,123,39.23,123.48,39.16Z"/><path class="cls-2" d="M123.43,39.31c0.19,0,.29,0,0.3.09a0.83,0.83,0,0,1,0,.22,0.16,0.16,0,0,1-.13.13c-0.2.07-1.46,0.52-1.77,0.65s-0.42.05-.45-0.06a0.7,0.7,0,0,1,.07-0.39,0.39,0.39,0,0,1,.23-0.17C121.9,39.68,123.07,39.37,123.43,39.31Z"/><path class="cls-29" d="M130.5,55.81c0.21-.38,1.61-3.34,1.95-4.2a4.49,4.49,0,0,0,.46-1.75,4.38,4.38,0,0,0-.43-1.77,40.24,40.24,0,0,0-4.18-5.88,3.12,3.12,0,0,0-3-1.09c-3.58.09-6.71,1.61-8.46,2.33a27.71,27.71,0,0,1,7.68-1.88c1.86-.11,2.61,0,3.29.81a40.13,40.13,0,0,1,4.12,5.76,3.06,3.06,0,0,1,.42,1.66,5.33,5.33,0,0,1-.53,1.73c-0.36.82-1.68,3.5-1.9,3.89-1,1.66-1.88,1.61-2.86,1.38,0.05,0,.5.24,0.91,0.41C129.12,57.68,129.84,57,130.5,55.81Z"/><path class="cls-30" d="M126.17,68.76l-0.44-.31a63,63,0,0,0-4.64,6.31c-1.27,2-3.11,5-3.39,5.71a4.57,4.57,0,0,0-.36,1.89s0.1,3.27.1,3.29a1.46,1.46,0,0,1-.28,1,1.55,1.55,0,0,1-1,.44c-0.76.11-4.32,0.66-5.29,0.86a1.82,1.82,0,0,0-1.55,1.27,6.61,6.61,0,0,0-.33,1.56,1,1,0,0,0,0,.19c0,0.36.1,0.34,0.1,0.34a63.16,63.16,0,0,1,6.57-.17c2.45,0.14,5.84.46,5.84,0.46s-3.56-.67-6-0.82-5.64.12-5.67,0a1.47,1.47,0,0,1-.06-0.55c0-.19.09-0.41,0.16-0.64a1.65,1.65,0,0,1,1.38-1.35c0.9-.23,4.36-0.8,5-1a1.27,1.27,0,0,0,1.16-.94,6.86,6.86,0,0,0,0-.86c0-.7-0.12-2.54-0.12-2.66a4.79,4.79,0,0,1,.81-3c1.15-1.91,5.48-8.49,7.63-10.78a0.43,0.43,0,0,1,.44-0.23Z"/><path class="cls-31" d="M74.4,106.47v9.61H77v-3h2.37c5.08,0,7.67-1.63,7.67-3.43s-2.78-3.22-7.44-3.22H74.4ZM77,112.09v-4.54h2.08c2.15,0,5,.36,5,2.15,0,1.21-.92,2.4-5.33,2.4H77Z"/><path class="cls-31" d="M102.17,116.08v-1.21H95.65c-1.4,0-1.8-.63-1.8-1.71v-1.41h7.65v-1.21H93.84v-2.87h8v-1.21H91.2v6.75c0,1.8.75,2.86,3.18,2.86h7.79Z"/><path class="cls-31" d="M119.1,106.47h-2.65v8.11a9.27,9.27,0,0,1-3.13.48c-2,0-4-.52-4-2.3v-6.29h-2.65V113c0,2.65,2.65,3.43,5.56,3.43a17.49,17.49,0,0,0,6.9-1.36v-8.55Z"/><path class="cls-31" d="M126.46,111.3c0-2.67,2.26-3.91,5-3.91a16.61,16.61,0,0,1,5.66,1.21V107a18.71,18.71,0,0,0-5.66-.81c-4.43,0-8,2-8,5.12,0,3.26,3.61,5.08,8,5.08a25.56,25.56,0,0,0,5.95-.82v-3.81h-2.61v2.85a8.16,8.16,0,0,1-3.15.58c-3,0-5.22-1.49-5.22-3.88"/><path class="cls-31" d="M153.22,116.08v-1.21H146.7c-1.4,0-1.8-.63-1.8-1.71v-1.41h7.65v-1.21h-7.65v-2.87h8v-1.21H142.25v6.75c0,1.8.75,2.86,3.18,2.86h7.79Z"/><path class="cls-31" d="M164.7,106.18c-4.43,0-8.05,2.07-8.05,5.17,0,3.25,3.62,5,8.05,5s8-1.78,8-5c0-3.1-3.6-5.17-8-5.17m0,9.13c-3,0-5-1.55-5-4,0-2.64,2.26-4,5-4s5,1.33,5,4c0,2.41-2,4-5,4"/><polygon class="cls-31" points="174.91 107.85 180.18 107.85 180.18 116.08 182.83 116.08 182.83 107.85 188.1 107.85 188.1 106.47 174.91 106.47 174.91 107.85"/></g></g></svg>