<svg id="Layer_1" data-name="Layer 1" xmlns="http://www.w3.org/2000/svg" viewBox="0 0 264 153"><defs><style>.cls-1{fill:#ef3f34;}.cls-2{fill:#f26449;}.cls-3{fill:#d72027;}.cls-4{fill:#be2034;}.cls-5{fill:#aa1e34;}</style></defs><title>Logo_LeSports</title><path class="cls-1" d="M48.23,78.1l8-21.94H50.49l-8,21.94c-0.58,1.58.24,2.86,1.82,2.86A4.53,4.53,0,0,0,48.23,78.1Z"/><polygon class="cls-2" points="75.63 65.7 58.47 65.7 57.43 68.56 56.38 71.42 73.55 71.42 74.59 68.56 75.63 65.7"/><path class="cls-3" d="M66.44,75.24h-20a4.53,4.53,0,0,0-3.9,2.86c-0.58,1.58.24,2.86,1.82,2.86h20l1-2.86Z"/><polygon class="cls-4" points="66.61 90.5 49.44 90.5 50.48 87.64 51.52 84.78 68.69 84.78 67.65 87.64 66.61 90.5"/><path class="cls-5" d="M48.23,78.1l1-2.86H46.41a4.53,4.53,0,0,0-3.9,2.86c-0.58,1.58.24,2.86,1.82,2.86A4.53,4.53,0,0,0,48.23,78.1Z"/><path class="cls-3" d="M127.33,76.85c-4-.93-5.86-1.91-4.87-4.65l0-.07c0.78-2.15,3.8-3.84,6.87-3.84s4.23,0.77,5.37,1.71a1.22,1.22,0,0,0,.72.33,2.12,2.12,0,0,0,2-1.22,1.16,1.16,0,0,0-.09-1.27c-1.73-1.88-4-2.27-7-2.27-4.79,0-9.64,3-11,6.81l0,0.07c-1.41,3.87.19,5.89,5.71,7.2,4.5,1,5.56,2,4.71,4.33l0,0.07c-0.87,2.38-3.67,4-6.82,4s-5.39-.8-6.5-2.46a1,1,0,0,0-.77-0.39,2.46,2.46,0,0,0-2.08,1.53,1.23,1.23,0,0,0,.09,1.16c1.41,2.4,5.21,2.9,8.16,2.9,5,0,9.56-2.9,11.07-7.06l0-.07C134.26,80,132.69,78.12,127.33,76.85Z"/><path class="cls-3" d="M172.34,71.73c-5.37,0-11.11,4.21-13.07,9.59l0,0.07c-1.94,5.34.71,9.52,6,9.52s11.16-4.21,13.11-9.59l0-.07C180.37,75.91,177.69,71.73,172.34,71.73Zm-1,2.63c3.7,0,5.49,3.05,4.07,7l0,0.07c-1.42,3.91-5.3,6.85-9,6.85s-5.46-3-4-6.92l0-.07C163.73,77.32,167.6,74.37,171.3,74.37Z"/><path class="cls-3" d="M192.79,71.87a10.74,10.74,0,0,0-6.52,1.51,6.59,6.59,0,0,0-2.48,3l-4.65,12.79a1,1,0,0,0,.94,1.49,2.3,2.3,0,0,0,2-1.49l4.46-12.26a3.39,3.39,0,0,1,2-1.74,7.83,7.83,0,0,1,2.69-.32h0.58a2.5,2.5,0,0,0,2.08-1.49A1.1,1.1,0,0,0,192.79,71.87Z"/><path class="cls-3" d="M150.49,71.73c-5.23,0-10.82,4-12.91,9.17h0l-0.12.32,0,0.1,0,0.07,0,0.1-4.82,13.24a1,1,0,0,0,1,1.49,2.3,2.3,0,0,0,2-1.49l2.33-6.39a6.53,6.53,0,0,0,5.62,2.57c5.4,0,11.16-4.21,13.12-9.59l0-.07C158.52,75.91,155.85,71.73,150.49,71.73Zm-1,2.63c3.7,0,5.5,3.05,4.08,7l0,0.07c-1.42,3.91-5.3,6.85-9,6.85s-5.46-3-4.05-6.92l0-.07C141.89,77.32,145.76,74.37,149.46,74.37Z"/><path class="cls-3" d="M213.48,79.9h0c-2.08-.71-4-1.38-3.45-3l0-.07a4.46,4.46,0,0,1,4.29-2.5,6.61,6.61,0,0,1,4.2,1.14,1,1,0,0,0,.57.2,2,2,0,0,0,1.81-1.14,1.07,1.07,0,0,0-.18-1.27c-1.54-1.25-4-1.44-5.41-1.44a8.69,8.69,0,0,0-8.22,5.31l0,0.07c-1.28,3.51,1.75,4.46,4.18,5.24,2.17,0.68,3.92,1.38,3.31,3.07l0,0.07a4.75,4.75,0,0,1-4.62,2.75c-2,0-3.14-.2-4.47-1.4a0.84,0.84,0,0,0-.65-0.24A2.05,2.05,0,0,0,203,87.94a1.06,1.06,0,0,0,.14,1.08c0.92,1.15,3,1.81,5.69,1.81a9,9,0,0,0,8.59-5.55l0-.08C218.63,81.94,216.14,80.8,213.48,79.9Z"/><path class="cls-3" d="M90.39,87.7H82.06L89.5,67.25a1,1,0,0,0-1-1.52,2.41,2.41,0,0,0-2,1.52L78.61,89a1,1,0,0,0,.92,1.52h9.84a2.17,2.17,0,0,0,1.87-1.37A1,1,0,0,0,90.39,87.7Z"/><path class="cls-3" d="M107.43,71.89c-4.9,0-10.26,4.16-12.19,9.47l0,0.07c-2,5.4.46,9.47,5.64,9.47a13,13,0,0,0,7.86-2.74,2.05,2.05,0,0,0,.8-1,0.87,0.87,0,0,0-.85-1.27,1.82,1.82,0,0,0-1,.34,10.19,10.19,0,0,1-5.84,2.05c-3.32,0-4.94-2.34-4.07-5.83h12.86a2.15,2.15,0,0,0,1.88-1.38C114.2,76.53,113,71.89,107.43,71.89Zm2.48,8.37H98.61c1.66-3.46,4.87-5.87,7.84-5.87C108.89,74.4,111.06,75.94,109.91,80.26Z"/><path class="cls-3" d="M199,87.71l-0.21,0a4.45,4.45,0,0,1-1,.14c-1.82,0-2.64-.45-1.78-2.84l3.78-10.38h3.46a2.09,2.09,0,0,0,1.81-1.3,0.91,0.91,0,0,0-.86-1.3h-3.46l1.5-4.12a1,1,0,0,0-.94-1.48,2.28,2.28,0,0,0-2,1.48L193,85.4c-1.33,3.64-.34,5.2,3.3,5.2,2.18,0,3.26-.82,3.54-1.59S199.75,87.62,199,87.71Z"/></svg>