<svg id="Layer_1" data-name="Layer 1" xmlns="http://www.w3.org/2000/svg" viewBox="0 0 264 153"><defs><style>.cls-1{fill:#f47920;}.cls-2{fill:#472f92;}</style></defs><title>Logo_FedEx</title><path class="cls-1" d="M201.71,90.88a3.66,3.66,0,1,0-3.66,3.75,3.59,3.59,0,0,0,3.66-3.75h0Zm-4.62.19v2.45H196.3V88.12h2A1.4,1.4,0,0,1,200,89.61a1.13,1.13,0,0,1-.94,1.15v0c0.46,0.07.62,0.48,0.72,1.23a5.08,5.08,0,0,0,.34,1.52h-0.94a17.54,17.54,0,0,1-.36-1.83,0.8,0.8,0,0,0-.91-0.63H197.1Zm1-.7a0.81,0.81,0,0,0,1-.77c0-.43-0.22-0.77-1-0.77h-1v1.54h1Zm-4.55.51a4.52,4.52,0,1,1,4.52,4.47,4.43,4.43,0,0,1-4.52-4.47h0Z"/><polygon class="cls-1" points="177.86 94.58 172.65 88.73 167.48 94.58 156.61 94.58 167.24 82.64 156.61 70.7 167.82 70.7 173.09 76.5 178.16 70.7 188.98 70.7 178.4 82.59 189.12 94.58 177.86 94.58"/><polygon class="cls-1" points="135.73 94.58 135.73 56.96 156.61 56.96 156.61 65.34 144.57 65.34 144.57 70.7 156.61 70.7 156.61 78.77 144.57 78.77 144.57 86.17 156.61 86.17 156.61 94.58 135.73 94.58"/><path class="cls-2" d="M126.92,57v15.4h-0.1a8.93,8.93,0,0,0-7.21-3c-5.79,0-10.15,3.94-11.69,9.14-1.75-5.73-6.25-9.25-12.93-9.25-5.42,0-9.71,2.43-11.94,6.4V70.7H71.84V65.34H84.08V57H61.85V94.58h10V78.76h10a15,15,0,0,0-.46,3.72c0,7.85,6,13.35,13.65,13.35,6.43,0,10.67-3,12.92-8.53H99.35c-1.16,1.66-2,2.15-4.35,2.15a5.15,5.15,0,0,1-5-5.12h17.44c0.76,6.23,5.61,11.61,12.28,11.61a8.54,8.54,0,0,0,7.12-3.8h0.1v2.44h8.81V57h-8.81ZM90.27,78.88a4.82,4.82,0,0,1,4.72-4,4.59,4.59,0,0,1,4.77,4H90.27Zm31.3,10c-3.25,0-5.27-3-5.27-6.19,0-3.38,1.76-6.62,5.27-6.62s5.09,3.25,5.09,6.62C126.66,85.87,125.13,88.85,121.57,88.85Z"/></svg>